<svg width="40" height="40" viewBox="0 0 40 40" fill="none" xmlns="http://www.w3.org/2000/svg">
<path d="M29.8924 5V11.2263L26.9815 14.1372L24.8229 11.9785L24.4058 12.3957L15.473 21.3284L22.638 28.4932L19.3068 31.8243L19.3069 34.9999H20.4865V32.313L23.4721 29.3274L24.8229 30.6782L34.1725 21.3284L30.3748 17.5308L34.6321 13.2733V5H33.4526V12.7847L29.5407 16.6967L27.8154 14.9714L31.0719 11.7149V5H29.8924ZM5 5.68852V6.86807H16.7788L19.5722 9.66143C19.4051 9.94777 19.3173 10.2734 19.3177 10.6049C19.3177 11.6415 20.1579 12.4819 21.1944 12.4819C22.2308 12.4819 23.0711 11.6415 23.0711 10.605C23.0711 9.56845 22.2308 8.72837 21.1944 8.72837C20.9329 8.72837 20.6839 8.78203 20.4576 8.87873L17.2675 5.68859L5 5.68852ZM5 9.19036V10.3701L13.2768 10.3703L16.0702 13.1636C15.9031 13.45 15.8152 13.7756 15.8155 14.1071C15.8155 15.1436 16.6557 15.9838 17.6922 15.9838C18.7286 15.9838 19.5689 15.1436 19.5689 14.1071C19.5689 13.0707 18.7287 12.2303 17.6922 12.2303C17.4307 12.2303 17.1817 12.284 16.9555 12.3807L13.7654 9.19054H5.00013L5 9.19036ZM10.2634 12.6924L5.00006 12.6926V13.8723L9.77491 13.8721L12.5683 16.6658C12.4012 16.9522 12.3134 17.2778 12.3137 17.6093C12.3137 18.6457 13.154 19.486 14.1904 19.486C15.2269 19.486 16.067 18.6457 16.067 17.6092C16.067 16.5727 15.2269 15.7324 14.1904 15.7324C13.9288 15.7324 13.6798 15.786 13.4535 15.8828L10.2634 12.6924ZM24.8229 13.6468L32.5043 21.3285L24.8229 29.0097L17.1413 21.3285L24.8229 13.647V13.6468ZM24.7437 15.3756L18.7741 21.3452L24.7714 27.3427L25.6055 26.5086L20.4424 21.3453L25.5779 16.2096L24.7437 15.3756ZM5.00013 16.7364V19.9686L15.1077 30.0762V34.9999H16.2874V28.0235L5.00013 16.7364ZM26.8722 17.2664L26.0382 18.1005L29.2877 21.3501L26.0199 24.6178L26.8542 25.4519L30.956 21.3501L26.8724 17.2663L26.8722 17.2664ZM24.983 19.3595C23.8815 19.3595 22.9888 20.2525 22.9888 21.3537C22.9888 22.4549 23.8816 23.3477 24.9828 23.3477C26.0843 23.3477 26.977 22.4549 26.977 21.3537C26.977 20.2523 26.0843 19.3594 24.9829 19.3594L24.983 19.3595ZM5 22.4186V25.6508L10.9893 31.6397V34.9999H12.1689V29.5872L5.00013 22.4186H5ZM31.9765 27.0361C30.9401 27.0361 30.0998 27.8764 30.0998 28.9129C30.0998 29.9493 30.9401 30.7898 31.9765 30.7898C32.2286 30.7898 32.469 30.7396 32.6885 30.6495L35 32.9607V31.2926L33.586 29.8787C33.7614 29.5871 33.8539 29.2532 33.8534 28.9129C33.8534 27.8765 33.013 27.0362 31.9765 27.0362V27.0361ZM5 28.1525V31.3849L6.97531 33.36L6.97518 35H8.15478L8.15516 31.3077L5 28.1525ZM28.4748 30.5382C27.4384 30.5382 26.598 31.3785 26.598 32.415C26.598 33.4515 27.4382 34.2916 28.4747 34.2916C28.6965 34.2916 28.9091 34.253 29.1066 34.1824L29.9243 34.9998H31.5926L30.0411 33.4484C30.2439 33.1419 30.3519 32.7825 30.3515 32.4149C30.3515 31.3784 29.5112 30.5381 28.4747 30.5381L28.4748 30.5382Z" fill="white"/>
</svg>
