<svg width="40" height="40" viewBox="0 0 40 40" fill="none" xmlns="http://www.w3.org/2000/svg">
<g clip-path="url(#clip0_7_4)">
<path d="M13.3333 17.9333H12.3667C11.0475 17.8857 9.73262 18.1096 8.50362 18.5913C7.27461 19.0729 6.15771 19.802 5.22222 20.7333L4.95555 21.0445V30.2445H9.48889V25.0222L10.1 24.3333L10.3778 24.0111C11.8244 22.525 13.6253 21.4314 15.6111 20.8333C14.6172 20.0765 13.8332 19.0782 13.3333 17.9333Z" fill="white"/>
<path d="M34.8222 20.7C33.8867 19.7687 32.7698 19.0396 31.5408 18.5579C30.3118 18.0763 28.9969 17.8523 27.6778 17.9C27.2732 17.9022 26.869 17.9244 26.4667 17.9667C25.9575 19.0408 25.1949 19.975 24.2444 20.6889C26.3646 21.2749 28.2852 22.4272 29.8 24.0222L30.0778 24.3333L30.6778 25.0222V30.2555H35.0556V21.0111L34.8222 20.7Z" fill="white"/>
<path d="M12.3333 15.7667H12.6778C12.5177 14.3925 12.7589 13.0014 13.372 11.7612C13.9852 10.5211 14.9442 9.48489 16.1333 8.77778C15.7023 8.11928 15.1076 7.58401 14.4076 7.22439C13.7075 6.86477 12.926 6.69312 12.1397 6.72626C11.3534 6.7594 10.5891 6.99618 9.9218 7.41343C9.25447 7.83067 8.70695 8.41408 8.33284 9.10651C7.95873 9.79894 7.77086 10.5767 7.78763 11.3635C7.8044 12.1504 8.02523 12.9194 8.42851 13.5952C8.83178 14.2711 9.40366 14.8306 10.0882 15.2191C10.7727 15.6075 11.5463 15.8115 12.3333 15.8111V15.7667Z" fill="white"/>
<path d="M27.1444 14.9333C27.157 15.1887 27.157 15.4446 27.1444 15.7C27.3576 15.7342 27.573 15.7527 27.7889 15.7556H28C28.7836 15.7138 29.543 15.4698 30.2043 15.0474C30.8656 14.625 31.4062 14.0386 31.7736 13.3453C32.141 12.6519 32.3226 11.8752 32.3007 11.0908C32.2788 10.3064 32.0542 9.5411 31.6487 8.8693C31.2433 8.19749 30.6707 7.64213 29.9869 7.25727C29.3031 6.87241 28.5313 6.67117 27.7466 6.67314C26.9619 6.67511 26.1911 6.88023 25.5092 7.26853C24.8274 7.65683 24.2576 8.21507 23.8556 8.8889C24.8612 9.5455 25.6881 10.4415 26.2621 11.4964C26.8362 12.5514 27.1393 13.7323 27.1444 14.9333Z" fill="white"/>
<path d="M19.8556 19.9111C22.5986 19.9111 24.8222 17.6875 24.8222 14.9445C24.8222 12.2014 22.5986 9.97778 19.8556 9.97778C17.1125 9.97778 14.8889 12.2014 14.8889 14.9445C14.8889 17.6875 17.1125 19.9111 19.8556 19.9111Z" fill="white"/>
<path d="M20.1222 22.5556C18.6712 22.4976 17.2235 22.7335 15.8659 23.249C14.5084 23.7645 13.269 24.5491 12.2222 25.5556L11.9444 25.8667V32.9C11.9488 33.1291 11.9982 33.3551 12.0899 33.5651C12.1816 33.7751 12.3138 33.9649 12.4789 34.1238C12.6439 34.2827 12.8387 34.4076 13.0521 34.4912C13.2654 34.5748 13.4931 34.6155 13.7222 34.6111H26.4889C26.718 34.6155 26.9457 34.5748 27.159 34.4912C27.3724 34.4076 27.5672 34.2827 27.7323 34.1238C27.8973 33.9649 28.0295 33.7751 28.1212 33.5651C28.2129 33.3551 28.2623 33.1291 28.2667 32.9V25.8889L28 25.5556C26.9604 24.5455 25.7254 23.7584 24.3707 23.2425C23.0161 22.7266 21.5704 22.4929 20.1222 22.5556Z" fill="white"/>
</g>
<defs>
<clipPath id="clip0_7_4">
<rect width="40" height="40" fill="white"/>
</clipPath>
</defs>
</svg>
