<svg width="37" height="37" viewBox="0 0 37 37" fill="none" xmlns="http://www.w3.org/2000/svg">
<path d="M18.4954 25.0444L22.0566 27.6313L18.5031 32.5215L14.9449 27.6236C16.1127 26.7425 17.3083 25.8992 18.4954 25.0436M17.3977 5.44594L14.2026 3.478L13.9159 7.21963L16.5444 8.07371L17.3977 5.44594ZM8.98714 10.7924L5.33956 9.90829L6.22371 13.5559H8.98714V10.7924ZM14.7622 13.5559H10.3608V7.51023L16.1189 9.38104C15.6919 10.7809 15.2201 12.1661 14.7622 13.5559ZM30.7555 13.5559L31.6396 9.90829L27.9928 10.7924V13.5559H30.7555ZM23.071 7.20883L22.7851 3.46721L19.5892 5.43515L20.4433 8.06292L23.071 7.20883ZM22.2277 13.5551L20.868 9.36948L26.6176 7.50175V13.5551C25.1546 13.5821 23.6908 13.5613 22.2277 13.5551ZM27.1703 28.766L30.912 28.4792L28.944 25.2841L26.3162 26.1382L27.1703 28.766ZM30.8318 19.4959L34.3021 18.0683L31.4431 15.6379L29.2076 17.2613L30.8318 19.4959ZM24.5356 20.6553L28.0961 18.0683L31.6496 22.9593L25.8915 24.8301C25.4136 23.4472 24.9827 22.0489 24.5356 20.6553ZM11.5964 30.0563L13.0248 33.5266L15.456 30.6668L13.8318 28.4322L11.5964 30.0563ZM21.5448 30.6745L23.9752 33.5328L25.4036 30.0633L23.1682 28.4391L21.5448 30.6745ZM5.55693 15.6433L2.69791 18.0745L6.16821 19.5021L7.79235 17.2667L5.55693 15.6433ZM8.04287 25.2949L6.07493 28.4908L9.81656 28.776L10.6706 26.149L8.04287 25.2949ZM12.4559 20.656L11.0954 24.8416L5.3465 22.9739L8.90466 18.076C10.1041 18.9147 11.2757 19.7911 12.4559 20.656Z" stroke="indigo" stroke-width="2" stroke-linecap="round" stroke-linejoin="round"/>
</svg>
