<svg width="40" height="40" viewBox="0 0 40 40" fill="none" xmlns="http://www.w3.org/2000/svg">
<path d="M25.8467 4C24.5871 4.00002 23.343 4.28296 22.2038 4.82854C21.0645 5.37413 20.0583 6.16884 19.2572 7.1557C18.4561 8.14257 17.88 9.29714 17.5702 10.5366C17.2605 11.7761 17.2247 13.0699 17.4654 14.3251L5.27193 27.1505C4.44333 28.0124 3.98592 29.1731 4.00033 30.3773C4.01474 31.5816 4.4998 32.7307 5.34878 33.5719C6.19777 34.4131 7.34115 34.8774 8.52739 34.8628C9.71363 34.8482 10.8456 34.3557 11.6742 33.4939L17.3155 27.6937C17.3779 25.9437 17.8666 24.2366 18.738 22.7253C19.6093 21.2139 20.8361 19.9454 22.3086 19.0332C23.7811 18.121 25.4534 17.5936 27.1758 17.498C28.8982 17.4025 30.6171 17.7419 32.1787 18.4859C33.101 17.4498 33.7636 16.2032 34.1104 14.8518C34.4573 13.5005 34.4781 12.0841 34.1711 10.7229C34.1333 10.5551 34.0519 10.4007 33.9354 10.2757C33.8189 10.1507 33.6715 10.0596 33.5086 10.0121C33.3457 9.96447 33.1732 9.96206 33.0091 10.0051C32.845 10.0481 32.6952 10.135 32.5753 10.2567L27.7442 15.1592L23.3951 10.7421L28.2243 5.83963C28.3437 5.71791 28.4288 5.56599 28.4709 5.39962C28.513 5.23325 28.5105 5.05848 28.4637 4.89343C28.4168 4.72838 28.3273 4.57904 28.2045 4.4609C28.0817 4.34276 27.93 4.26011 27.7651 4.22153C27.1366 4.07444 26.4936 4.00012 25.8486 4M20.4122 26.9617C20.9022 26.8345 21.3622 26.6091 21.7652 26.2988C22.1682 25.9885 22.506 25.5996 22.7588 25.1549C23.0116 24.7102 23.1743 24.2186 23.2373 23.7092C23.3003 23.1997 23.2623 22.6827 23.1257 22.1883L22.8316 21.1153C23.3148 20.7391 23.8341 20.4199 24.3894 20.158L25.0308 20.8476C25.3854 21.2296 25.8132 21.534 26.2879 21.7421C26.7626 21.9502 27.2742 22.0577 27.7913 22.0579C28.3083 22.058 28.82 21.9509 29.2948 21.7432C29.7697 21.5354 30.1977 21.2313 30.5526 20.8495L31.1674 20.1869C31.7341 20.4591 32.2622 20.7924 32.7518 21.1866L32.5127 21.9995C32.3647 22.5024 32.3194 23.0306 32.3797 23.5518C32.4399 24.073 32.6045 24.5763 32.8632 25.0306C33.1219 25.485 33.4693 25.8809 33.8841 26.1941C34.2989 26.5073 34.7724 26.7311 35.2755 26.8519L35.9377 27.0099C36.0138 27.6603 36.0202 28.3171 35.9567 28.9689L35.0838 29.1962C34.5937 29.3233 34.1335 29.5485 33.7303 29.8587C33.3271 30.1689 32.9891 30.5578 32.7361 31.0025C32.4831 31.4473 32.3203 31.9389 32.2571 32.4484C32.194 32.958 32.2319 33.4752 32.3685 33.9697L32.6645 35.0407C32.18 35.4195 31.6601 35.7393 31.1047 36L30.4634 35.3104C30.1089 34.9286 29.6813 34.6243 29.2069 34.4162C28.7324 34.208 28.2211 34.1005 27.7043 34.1002C27.1874 34.0998 26.676 34.2066 26.2012 34.4141C25.7265 34.6215 25.2985 34.9252 24.9435 35.3065L24.3268 35.9711C23.7628 35.7011 23.2312 35.3663 22.7424 34.9733L22.9834 34.1584C23.1317 33.6555 23.1772 33.1271 23.1171 32.6056C23.057 32.0842 22.8925 31.5807 22.6338 31.1261C22.375 30.6715 22.0275 30.2754 21.6125 29.9621C21.1976 29.6488 20.7239 29.4249 20.2206 29.3041L19.5565 29.1462C19.4805 28.4964 19.4741 27.8402 19.5375 27.189L20.4122 26.9617ZM25.8486 28.079C25.8486 28.5899 26.0485 29.0798 26.4044 29.4411C26.7602 29.8023 27.2429 30.0053 27.7461 30.0053C28.2494 30.0053 28.732 29.8023 29.0879 29.4411C29.4437 29.0798 29.6437 28.5899 29.6437 28.079C29.6437 27.5681 29.4437 27.0781 29.0879 26.7169C28.732 26.3556 28.2494 26.1527 27.7461 26.1527C27.2429 26.1527 26.7602 26.3556 26.4044 26.7169C26.0485 27.0781 25.8486 27.5681 25.8486 28.079Z" fill="white"/>
</svg>
