<svg width="542" height="80" viewBox="0 0 542 80" fill="none" xmlns="http://www.w3.org/2000/svg">
<g style="mix-blend-mode:soft-light">
<path d="M250 0.250061H0V79.2188H250V0.250061Z" fill="#1E1E1E"/>
</g>
<path d="M251.667 0.250031V79.2188" stroke="#AFFC41" stroke-width="3.33333"/>
<path d="M70.3774 37.112C69.6414 37.112 68.98 36.984 68.3934 36.728C67.8174 36.4613 67.364 36.0987 67.0334 35.64C66.7027 35.1707 66.532 34.632 66.5214 34.024H68.0734C68.1267 34.5467 68.34 34.9893 68.7134 35.352C69.0974 35.704 69.652 35.88 70.3774 35.88C71.0707 35.88 71.6147 35.7093 72.0094 35.368C72.4147 35.016 72.6174 34.568 72.6174 34.024C72.6174 33.5973 72.5 33.2507 72.2654 32.984C72.0307 32.7173 71.7374 32.5147 71.3854 32.376C71.0334 32.2373 70.5587 32.088 69.9614 31.928C69.2254 31.736 68.6334 31.544 68.1854 31.352C67.748 31.16 67.3694 30.8613 67.0494 30.456C66.74 30.04 66.5854 29.4853 66.5854 28.792C66.5854 28.184 66.74 27.6453 67.0494 27.176C67.3587 26.7067 67.7907 26.344 68.3454 26.088C68.9107 25.832 69.556 25.704 70.2814 25.704C71.3267 25.704 72.18 25.9653 72.8414 26.488C73.5134 27.0107 73.892 27.704 73.9774 28.568H72.3774C72.324 28.1413 72.1 27.768 71.7054 27.448C71.3107 27.1173 70.788 26.952 70.1374 26.952C69.5294 26.952 69.0334 27.112 68.6494 27.432C68.2654 27.7413 68.0734 28.1787 68.0734 28.744C68.0734 29.1493 68.1854 29.48 68.4094 29.736C68.644 29.992 68.9267 30.1893 69.2574 30.328C69.5987 30.456 70.0734 30.6053 70.6814 30.776C71.4174 30.9787 72.0094 31.1813 72.4574 31.384C72.9054 31.576 73.2894 31.88 73.6094 32.296C73.9294 32.7013 74.0894 33.256 74.0894 33.96C74.0894 34.504 73.9454 35.016 73.6574 35.496C73.3694 35.976 72.9427 36.3653 72.3774 36.664C71.812 36.9627 71.1454 37.112 70.3774 37.112ZM75.688 32.584C75.688 31.688 75.8693 30.904 76.232 30.232C76.5947 29.5493 77.0907 29.0213 77.72 28.648C78.36 28.2747 79.0693 28.088 79.848 28.088C80.616 28.088 81.2827 28.2533 81.848 28.584C82.4133 28.9147 82.8347 29.3307 83.112 29.832V28.232H84.584V37H83.112V35.368C82.824 35.88 82.392 36.3067 81.816 36.648C81.2507 36.9787 80.5893 37.144 79.832 37.144C79.0533 37.144 78.3493 36.952 77.72 36.568C77.0907 36.184 76.5947 35.6453 76.232 34.952C75.8693 34.2587 75.688 33.4693 75.688 32.584ZM83.112 32.6C83.112 31.9387 82.9787 31.3627 82.712 30.872C82.4453 30.3813 82.0827 30.008 81.624 29.752C81.176 29.4853 80.68 29.352 80.136 29.352C79.592 29.352 79.096 29.48 78.648 29.736C78.2 29.992 77.8427 30.3653 77.576 30.856C77.3093 31.3467 77.176 31.9227 77.176 32.584C77.176 33.256 77.3093 33.8427 77.576 34.344C77.8427 34.8347 78.2 35.2133 78.648 35.48C79.096 35.736 79.592 35.864 80.136 35.864C80.68 35.864 81.176 35.736 81.624 35.48C82.0827 35.2133 82.4453 34.8347 82.712 34.344C82.9787 33.8427 83.112 33.2613 83.112 32.6ZM97.5885 28.072C98.2712 28.072 98.8792 28.216 99.4125 28.504C99.9458 28.7813 100.367 29.2027 100.677 29.768C100.986 30.3333 101.141 31.0213 101.141 31.832V37H99.7005V32.04C99.7005 31.1653 99.4818 30.4987 99.0445 30.04C98.6178 29.5707 98.0365 29.336 97.3005 29.336C96.5432 29.336 95.9405 29.5813 95.4925 30.072C95.0445 30.552 94.8205 31.2507 94.8205 32.168V37H93.3805V32.04C93.3805 31.1653 93.1618 30.4987 92.7245 30.04C92.2978 29.5707 91.7165 29.336 90.9805 29.336C90.2232 29.336 89.6205 29.5813 89.1725 30.072C88.7245 30.552 88.5005 31.2507 88.5005 32.168V37H87.0445V28.232H88.5005V29.496C88.7885 29.0373 89.1725 28.6853 89.6525 28.44C90.1432 28.1947 90.6818 28.072 91.2685 28.072C92.0045 28.072 92.6552 28.2373 93.2205 28.568C93.7858 28.8987 94.2072 29.384 94.4845 30.024C94.7298 29.4053 95.1352 28.9253 95.7005 28.584C96.2658 28.2427 96.8952 28.072 97.5885 28.072ZM102.985 32.584C102.985 31.688 103.166 30.904 103.529 30.232C103.892 29.5493 104.388 29.0213 105.017 28.648C105.657 28.2747 106.366 28.088 107.145 28.088C107.913 28.088 108.58 28.2533 109.145 28.584C109.71 28.9147 110.132 29.3307 110.409 29.832V28.232H111.881V37H110.409V35.368C110.121 35.88 109.689 36.3067 109.113 36.648C108.548 36.9787 107.886 37.144 107.129 37.144C106.35 37.144 105.646 36.952 105.017 36.568C104.388 36.184 103.892 35.6453 103.529 34.952C103.166 34.2587 102.985 33.4693 102.985 32.584ZM110.409 32.6C110.409 31.9387 110.276 31.3627 110.009 30.872C109.742 30.3813 109.38 30.008 108.921 29.752C108.473 29.4853 107.977 29.352 107.433 29.352C106.889 29.352 106.393 29.48 105.945 29.736C105.497 29.992 105.14 30.3653 104.873 30.856C104.606 31.3467 104.473 31.9227 104.473 32.584C104.473 33.256 104.606 33.8427 104.873 34.344C105.14 34.8347 105.497 35.2133 105.945 35.48C106.393 35.736 106.889 35.864 107.433 35.864C107.977 35.864 108.473 35.736 108.921 35.48C109.38 35.2133 109.742 34.8347 110.009 34.344C110.276 33.8427 110.409 33.2613 110.409 32.6ZM116.117 29.432V34.6C116.117 35.0267 116.208 35.3307 116.389 35.512C116.571 35.6827 116.885 35.768 117.333 35.768H118.405V37H117.093C116.283 37 115.675 36.8133 115.269 36.44C114.864 36.0667 114.661 35.4533 114.661 34.6V29.432H113.525V28.232H114.661V26.024H116.117V28.232H118.405V29.432H116.117ZM123.434 35.656L126.154 28.232H127.706L124.266 37H122.57L119.13 28.232H120.698L123.434 35.656ZM128.594 32.584C128.594 31.688 128.776 30.904 129.138 30.232C129.501 29.5493 129.997 29.0213 130.626 28.648C131.266 28.2747 131.976 28.088 132.754 28.088C133.522 28.088 134.189 28.2533 134.754 28.584C135.32 28.9147 135.741 29.3307 136.018 29.832V28.232H137.49V37H136.018V35.368C135.73 35.88 135.298 36.3067 134.722 36.648C134.157 36.9787 133.496 37.144 132.738 37.144C131.96 37.144 131.256 36.952 130.626 36.568C129.997 36.184 129.501 35.6453 129.138 34.952C128.776 34.2587 128.594 33.4693 128.594 32.584ZM136.018 32.6C136.018 31.9387 135.885 31.3627 135.618 30.872C135.352 30.3813 134.989 30.008 134.53 29.752C134.082 29.4853 133.586 29.352 133.042 29.352C132.498 29.352 132.002 29.48 131.554 29.736C131.106 29.992 130.749 30.3653 130.482 30.856C130.216 31.3467 130.082 31.9227 130.082 32.584C130.082 33.256 130.216 33.8427 130.482 34.344C130.749 34.8347 131.106 35.2133 131.554 35.48C132.002 35.736 132.498 35.864 133.042 35.864C133.586 35.864 134.082 35.736 134.53 35.48C134.989 35.2133 135.352 34.8347 135.618 34.344C135.885 33.8427 136.018 33.2613 136.018 32.6ZM145.672 27.032V30.76H149.736V31.96H145.672V35.8H150.216V37H144.216V25.832H150.216V27.032H145.672ZM151.876 32.584C151.876 31.688 152.057 30.904 152.42 30.232C152.782 29.5493 153.278 29.0213 153.908 28.648C154.548 28.2747 155.262 28.088 156.052 28.088C156.734 28.088 157.369 28.248 157.956 28.568C158.542 28.8773 158.99 29.288 159.3 29.8V25.16H160.772V37H159.3V35.352C159.012 35.8747 158.585 36.3067 158.02 36.648C157.454 36.9787 156.793 37.144 156.036 37.144C155.257 37.144 154.548 36.952 153.908 36.568C153.278 36.184 152.782 35.6453 152.42 34.952C152.057 34.2587 151.876 33.4693 151.876 32.584ZM159.3 32.6C159.3 31.9387 159.166 31.3627 158.9 30.872C158.633 30.3813 158.27 30.008 157.812 29.752C157.364 29.4853 156.868 29.352 156.324 29.352C155.78 29.352 155.284 29.48 154.836 29.736C154.388 29.992 154.03 30.3653 153.764 30.856C153.497 31.3467 153.364 31.9227 153.364 32.584C153.364 33.256 153.497 33.8427 153.764 34.344C154.03 34.8347 154.388 35.2133 154.836 35.48C155.284 35.736 155.78 35.864 156.324 35.864C156.868 35.864 157.364 35.736 157.812 35.48C158.27 35.2133 158.633 34.8347 158.9 34.344C159.166 33.8427 159.3 33.2613 159.3 32.6ZM171.008 28.232V37H169.552V35.704C169.275 36.152 168.885 36.504 168.384 36.76C167.893 37.0053 167.349 37.128 166.752 37.128C166.069 37.128 165.456 36.9893 164.912 36.712C164.368 36.424 163.936 35.9973 163.616 35.432C163.307 34.8667 163.152 34.1787 163.152 33.368V28.232H164.592V33.176C164.592 34.04 164.811 34.7067 165.248 35.176C165.685 35.6347 166.283 35.864 167.04 35.864C167.819 35.864 168.432 35.624 168.88 35.144C169.328 34.664 169.552 33.9653 169.552 33.048V28.232H171.008ZM172.922 32.6C172.922 31.6933 173.104 30.904 173.466 30.232C173.829 29.5493 174.33 29.0213 174.97 28.648C175.621 28.2747 176.362 28.088 177.194 28.088C178.272 28.088 179.157 28.3493 179.85 28.872C180.554 29.3947 181.018 30.12 181.242 31.048H179.674C179.525 30.5147 179.232 30.0933 178.794 29.784C178.368 29.4747 177.834 29.32 177.194 29.32C176.362 29.32 175.69 29.608 175.178 30.184C174.666 30.7493 174.41 31.5547 174.41 32.6C174.41 33.656 174.666 34.472 175.178 35.048C175.69 35.624 176.362 35.912 177.194 35.912C177.834 35.912 178.368 35.7627 178.794 35.464C179.221 35.1653 179.514 34.7387 179.674 34.184H181.242C181.008 35.08 180.538 35.8 179.834 36.344C179.13 36.8773 178.25 37.144 177.194 37.144C176.362 37.144 175.621 36.9573 174.97 36.584C174.33 36.2107 173.829 35.6827 173.466 35C173.104 34.3173 172.922 33.5173 172.922 32.6ZM182.641 32.584C182.641 31.688 182.822 30.904 183.185 30.232C183.548 29.5493 184.044 29.0213 184.673 28.648C185.313 28.2747 186.022 28.088 186.801 28.088C187.569 28.088 188.236 28.2533 188.801 28.584C189.366 28.9147 189.788 29.3307 190.065 29.832V28.232H191.537V37H190.065V35.368C189.777 35.88 189.345 36.3067 188.769 36.648C188.204 36.9787 187.542 37.144 186.785 37.144C186.006 37.144 185.302 36.952 184.673 36.568C184.044 36.184 183.548 35.6453 183.185 34.952C182.822 34.2587 182.641 33.4693 182.641 32.584ZM190.065 32.6C190.065 31.9387 189.932 31.3627 189.665 30.872C189.398 30.3813 189.036 30.008 188.577 29.752C188.129 29.4853 187.633 29.352 187.089 29.352C186.545 29.352 186.049 29.48 185.601 29.736C185.153 29.992 184.796 30.3653 184.529 30.856C184.262 31.3467 184.129 31.9227 184.129 32.584C184.129 33.256 184.262 33.8427 184.529 34.344C184.796 34.8347 185.153 35.2133 185.601 35.48C186.049 35.736 186.545 35.864 187.089 35.864C187.633 35.864 188.129 35.736 188.577 35.48C189.036 35.2133 189.398 34.8347 189.665 34.344C189.932 33.8427 190.065 33.2613 190.065 32.6ZM195.774 29.432V34.6C195.774 35.0267 195.864 35.3307 196.046 35.512C196.227 35.6827 196.542 35.768 196.99 35.768H198.062V37H196.75C195.939 37 195.331 36.8133 194.926 36.44C194.52 36.0667 194.318 35.4533 194.318 34.6V29.432H193.182V28.232H194.318V26.024H195.774V28.232H198.062V29.432H195.774ZM200.578 26.808C200.3 26.808 200.066 26.712 199.874 26.52C199.682 26.328 199.586 26.0933 199.586 25.816C199.586 25.5387 199.682 25.304 199.874 25.112C200.066 24.92 200.3 24.824 200.578 24.824C200.844 24.824 201.068 24.92 201.25 25.112C201.442 25.304 201.538 25.5387 201.538 25.816C201.538 26.0933 201.442 26.328 201.25 26.52C201.068 26.712 200.844 26.808 200.578 26.808ZM201.282 28.232V37H199.826V28.232H201.282ZM207.587 37.144C206.766 37.144 206.019 36.9573 205.347 36.584C204.686 36.2107 204.163 35.6827 203.779 35C203.406 34.3067 203.219 33.5067 203.219 32.6C203.219 31.704 203.411 30.9147 203.795 30.232C204.19 29.5387 204.723 29.0107 205.395 28.648C206.067 28.2747 206.819 28.088 207.651 28.088C208.483 28.088 209.235 28.2747 209.907 28.648C210.579 29.0107 211.107 29.5333 211.491 30.216C211.886 30.8987 212.083 31.6933 212.083 32.6C212.083 33.5067 211.881 34.3067 211.475 35C211.081 35.6827 210.542 36.2107 209.859 36.584C209.177 36.9573 208.419 37.144 207.587 37.144ZM207.587 35.864C208.11 35.864 208.601 35.7413 209.059 35.496C209.518 35.2507 209.886 34.8827 210.163 34.392C210.451 33.9013 210.595 33.304 210.595 32.6C210.595 31.896 210.457 31.2987 210.179 30.808C209.902 30.3173 209.539 29.9547 209.091 29.72C208.643 29.4747 208.158 29.352 207.635 29.352C207.102 29.352 206.611 29.4747 206.163 29.72C205.726 29.9547 205.374 30.3173 205.107 30.808C204.841 31.2987 204.707 31.896 204.707 32.6C204.707 33.3147 204.835 33.9173 205.091 34.408C205.358 34.8987 205.71 35.2667 206.147 35.512C206.585 35.7467 207.065 35.864 207.587 35.864ZM218.27 28.072C219.336 28.072 220.2 28.3973 220.862 29.048C221.523 29.688 221.854 30.616 221.854 31.832V37H220.414V32.04C220.414 31.1653 220.195 30.4987 219.758 30.04C219.32 29.5707 218.723 29.336 217.966 29.336C217.198 29.336 216.584 29.576 216.126 30.056C215.678 30.536 215.454 31.2347 215.454 32.152V37H213.998V28.232H215.454V29.48C215.742 29.032 216.131 28.6853 216.622 28.44C217.123 28.1947 217.672 28.072 218.27 28.072ZM94.563 50.584C94.563 49.688 94.7443 48.904 95.107 48.232C95.4697 47.5493 95.9657 47.0213 96.595 46.648C97.235 46.2747 97.9443 46.088 98.723 46.088C99.491 46.088 100.158 46.2533 100.723 46.584C101.288 46.9147 101.71 47.3307 101.987 47.832V46.232H103.459V55H101.987V53.368C101.699 53.88 101.267 54.3067 100.691 54.648C100.126 54.9787 99.4643 55.144 98.707 55.144C97.9283 55.144 97.2243 54.952 96.595 54.568C95.9657 54.184 95.4697 53.6453 95.107 52.952C94.7443 52.2587 94.563 51.4693 94.563 50.584ZM101.987 50.6C101.987 49.9387 101.854 49.3627 101.587 48.872C101.32 48.3813 100.958 48.008 100.499 47.752C100.051 47.4853 99.555 47.352 99.011 47.352C98.467 47.352 97.971 47.48 97.523 47.736C97.075 47.992 96.7177 48.3653 96.451 48.856C96.1843 49.3467 96.051 49.9227 96.051 50.584C96.051 51.256 96.1843 51.8427 96.451 52.344C96.7177 52.8347 97.075 53.2133 97.523 53.48C97.971 53.736 98.467 53.864 99.011 53.864C99.555 53.864 100.051 53.736 100.499 53.48C100.958 53.2133 101.32 52.8347 101.587 52.344C101.854 51.8427 101.987 51.2613 101.987 50.6ZM110.192 46.072C111.258 46.072 112.122 46.3973 112.784 47.048C113.445 47.688 113.776 48.616 113.776 49.832V55H112.336V50.04C112.336 49.1653 112.117 48.4987 111.68 48.04C111.242 47.5707 110.645 47.336 109.888 47.336C109.12 47.336 108.506 47.576 108.048 48.056C107.6 48.536 107.376 49.2347 107.376 50.152V55H105.92V46.232H107.376V47.48C107.664 47.032 108.053 46.6853 108.544 46.44C109.045 46.1947 109.594 46.072 110.192 46.072ZM115.61 50.584C115.61 49.688 115.791 48.904 116.154 48.232C116.517 47.5493 117.013 47.0213 117.642 46.648C118.282 46.2747 118.997 46.088 119.786 46.088C120.469 46.088 121.103 46.248 121.69 46.568C122.277 46.8773 122.725 47.288 123.034 47.8V43.16H124.506V55H123.034V53.352C122.746 53.8747 122.319 54.3067 121.754 54.648C121.189 54.9787 120.527 55.144 119.77 55.144C118.991 55.144 118.282 54.952 117.642 54.568C117.013 54.184 116.517 53.6453 116.154 52.952C115.791 52.2587 115.61 51.4693 115.61 50.584ZM123.034 50.6C123.034 49.9387 122.901 49.3627 122.634 48.872C122.367 48.3813 122.005 48.008 121.546 47.752C121.098 47.4853 120.602 47.352 120.058 47.352C119.514 47.352 119.018 47.48 118.57 47.736C118.122 47.992 117.765 48.3653 117.498 48.856C117.231 49.3467 117.098 49.9227 117.098 50.584C117.098 51.256 117.231 51.8427 117.498 52.344C117.765 52.8347 118.122 53.2133 118.57 53.48C119.018 53.736 119.514 53.864 120.058 53.864C120.602 53.864 121.098 53.736 121.546 53.48C122.005 53.2133 122.367 52.8347 122.634 52.344C122.901 51.8427 123.034 51.2613 123.034 50.6ZM138.096 43.848V45.032H135.056V55H133.6V45.032H130.544V43.848H138.096ZM147.888 50.28C147.888 50.5573 147.872 50.8507 147.84 51.16H140.832C140.886 52.024 141.179 52.7013 141.712 53.192C142.256 53.672 142.912 53.912 143.68 53.912C144.31 53.912 144.832 53.768 145.248 53.48C145.675 53.1813 145.974 52.7867 146.144 52.296H147.712C147.478 53.1387 147.008 53.8267 146.304 54.36C145.6 54.8827 144.726 55.144 143.68 55.144C142.848 55.144 142.102 54.9573 141.44 54.584C140.79 54.2107 140.278 53.6827 139.904 53C139.531 52.3067 139.344 51.5067 139.344 50.6C139.344 49.6933 139.526 48.8987 139.888 48.216C140.251 47.5333 140.758 47.0107 141.408 46.648C142.07 46.2747 142.827 46.088 143.68 46.088C144.512 46.088 145.248 46.2693 145.888 46.632C146.528 46.9947 147.019 47.496 147.36 48.136C147.712 48.7653 147.888 49.48 147.888 50.28ZM146.384 49.976C146.384 49.4213 146.262 48.9467 146.016 48.552C145.771 48.1467 145.435 47.8427 145.008 47.64C144.592 47.4267 144.128 47.32 143.616 47.32C142.88 47.32 142.251 47.5547 141.728 48.024C141.216 48.4933 140.923 49.144 140.848 49.976H146.384ZM149.266 50.6C149.266 49.6933 149.447 48.904 149.81 48.232C150.173 47.5493 150.674 47.0213 151.314 46.648C151.965 46.2747 152.706 46.088 153.538 46.088C154.615 46.088 155.501 46.3493 156.194 46.872C156.898 47.3947 157.362 48.12 157.586 49.048H156.018C155.869 48.5147 155.575 48.0933 155.138 47.784C154.711 47.4747 154.178 47.32 153.538 47.32C152.706 47.32 152.034 47.608 151.522 48.184C151.01 48.7493 150.754 49.5547 150.754 50.6C150.754 51.656 151.01 52.472 151.522 53.048C152.034 53.624 152.706 53.912 153.538 53.912C154.178 53.912 154.711 53.7627 155.138 53.464C155.565 53.1653 155.858 52.7387 156.018 52.184H157.586C157.351 53.08 156.882 53.8 156.178 54.344C155.474 54.8773 154.594 55.144 153.538 55.144C152.706 55.144 151.965 54.9573 151.314 54.584C150.674 54.2107 150.173 53.6827 149.81 53C149.447 52.3173 149.266 51.5173 149.266 50.6ZM163.881 46.072C164.542 46.072 165.14 46.216 165.673 46.504C166.206 46.7813 166.622 47.2027 166.921 47.768C167.23 48.3333 167.385 49.0213 167.385 49.832V55H165.945V50.04C165.945 49.1653 165.726 48.4987 165.289 48.04C164.852 47.5707 164.254 47.336 163.497 47.336C162.729 47.336 162.116 47.576 161.657 48.056C161.209 48.536 160.985 49.2347 160.985 50.152V55H159.529V43.16H160.985V47.48C161.273 47.032 161.668 46.6853 162.169 46.44C162.681 46.1947 163.252 46.072 163.881 46.072ZM174.035 46.072C175.102 46.072 175.966 46.3973 176.627 47.048C177.289 47.688 177.619 48.616 177.619 49.832V55H176.179V50.04C176.179 49.1653 175.961 48.4987 175.523 48.04C175.086 47.5707 174.489 47.336 173.731 47.336C172.963 47.336 172.35 47.576 171.891 48.056C171.443 48.536 171.219 49.2347 171.219 50.152V55H169.763V46.232H171.219V47.48C171.507 47.032 171.897 46.6853 172.387 46.44C172.889 46.1947 173.438 46.072 174.035 46.072ZM183.822 55.144C183 55.144 182.254 54.9573 181.582 54.584C180.92 54.2107 180.398 53.6827 180.014 53C179.64 52.3067 179.454 51.5067 179.454 50.6C179.454 49.704 179.646 48.9147 180.03 48.232C180.424 47.5387 180.958 47.0107 181.63 46.648C182.302 46.2747 183.054 46.088 183.886 46.088C184.718 46.088 185.47 46.2747 186.142 46.648C186.814 47.0107 187.342 47.5333 187.726 48.216C188.12 48.8987 188.318 49.6933 188.318 50.6C188.318 51.5067 188.115 52.3067 187.71 53C187.315 53.6827 186.776 54.2107 186.094 54.584C185.411 54.9573 184.654 55.144 183.822 55.144ZM183.822 53.864C184.344 53.864 184.835 53.7413 185.294 53.496C185.752 53.2507 186.12 52.8827 186.398 52.392C186.686 51.9013 186.83 51.304 186.83 50.6C186.83 49.896 186.691 49.2987 186.414 48.808C186.136 48.3173 185.774 47.9547 185.326 47.72C184.878 47.4747 184.392 47.352 183.87 47.352C183.336 47.352 182.846 47.4747 182.398 47.72C181.96 47.9547 181.608 48.3173 181.342 48.808C181.075 49.2987 180.942 49.896 180.942 50.6C180.942 51.3147 181.07 51.9173 181.326 52.408C181.592 52.8987 181.944 53.2667 182.382 53.512C182.819 53.7467 183.299 53.864 183.822 53.864ZM191.688 43.16V55H190.232V43.16H191.688ZM197.994 55.144C197.172 55.144 196.426 54.9573 195.754 54.584C195.092 54.2107 194.57 53.6827 194.186 53C193.812 52.3067 193.626 51.5067 193.626 50.6C193.626 49.704 193.818 48.9147 194.202 48.232C194.596 47.5387 195.13 47.0107 195.802 46.648C196.474 46.2747 197.226 46.088 198.058 46.088C198.89 46.088 199.642 46.2747 200.314 46.648C200.986 47.0107 201.514 47.5333 201.898 48.216C202.292 48.8987 202.49 49.6933 202.49 50.6C202.49 51.5067 202.287 52.3067 201.882 53C201.487 53.6827 200.948 54.2107 200.266 54.584C199.583 54.9573 198.826 55.144 197.994 55.144ZM197.994 53.864C198.516 53.864 199.007 53.7413 199.466 53.496C199.924 53.2507 200.292 52.8827 200.57 52.392C200.858 51.9013 201.002 51.304 201.002 50.6C201.002 49.896 200.863 49.2987 200.586 48.808C200.308 48.3173 199.946 47.9547 199.498 47.72C199.05 47.4747 198.564 47.352 198.042 47.352C197.508 47.352 197.018 47.4747 196.57 47.72C196.132 47.9547 195.78 48.3173 195.514 48.808C195.247 49.2987 195.114 49.896 195.114 50.6C195.114 51.3147 195.242 51.9173 195.498 52.408C195.764 52.8987 196.116 53.2667 196.554 53.512C196.991 53.7467 197.471 53.864 197.994 53.864ZM208.02 46.088C208.777 46.088 209.439 46.2533 210.004 46.584C210.58 46.9147 211.007 47.3307 211.284 47.832V46.232H212.756V55.192C212.756 55.992 212.585 56.7013 212.244 57.32C211.903 57.9493 211.412 58.44 210.772 58.792C210.143 59.144 209.407 59.32 208.564 59.32C207.412 59.32 206.452 59.048 205.684 58.504C204.916 57.96 204.463 57.2187 204.324 56.28H205.764C205.924 56.8133 206.255 57.24 206.756 57.56C207.257 57.8907 207.86 58.056 208.564 58.056C209.364 58.056 210.015 57.8053 210.516 57.304C211.028 56.8027 211.284 56.0987 211.284 55.192V53.352C210.996 53.864 210.569 54.2907 210.004 54.632C209.439 54.9733 208.777 55.144 208.02 55.144C207.241 55.144 206.532 54.952 205.892 54.568C205.263 54.184 204.767 53.6453 204.404 52.952C204.041 52.2587 203.86 51.4693 203.86 50.584C203.86 49.688 204.041 48.904 204.404 48.232C204.767 47.5493 205.263 47.0213 205.892 46.648C206.532 46.2747 207.241 46.088 208.02 46.088ZM211.284 50.6C211.284 49.9387 211.151 49.3627 210.884 48.872C210.617 48.3813 210.255 48.008 209.796 47.752C209.348 47.4853 208.852 47.352 208.308 47.352C207.764 47.352 207.268 47.48 206.82 47.736C206.372 47.992 206.015 48.3653 205.748 48.856C205.481 49.3467 205.348 49.9227 205.348 50.584C205.348 51.256 205.481 51.8427 205.748 52.344C206.015 52.8347 206.372 53.2133 206.82 53.48C207.268 53.736 207.764 53.864 208.308 53.864C208.852 53.864 209.348 53.736 209.796 53.48C210.255 53.2133 210.617 52.8347 210.884 52.344C211.151 51.8427 211.284 51.2613 211.284 50.6ZM222.768 46.232L217.488 59.128H215.984L217.712 54.904L214.176 46.232H215.792L218.544 53.336L221.264 46.232H222.768Z" fill="#AFFC41"/>
<g style="mix-blend-mode:soft-light">
<path d="M541.667 0.250061H291.667V79.2188H541.667V0.250061Z" fill="#1E1E1E"/>
</g>
<path d="M293.333 0.250031V79.2188" stroke="#AFFC41" stroke-width="3.33333"/>
<path d="M323.067 50L319.24 45.76V50H318.027V40.7067H319.24V45.0133L323.08 40.7067H324.613L320.4 45.36L324.653 50H323.067ZM325.555 46.32C325.555 45.5733 325.706 44.92 326.008 44.36C326.311 43.7911 326.724 43.3511 327.248 43.04C327.782 42.7289 328.373 42.5733 329.022 42.5733C329.662 42.5733 330.217 42.7111 330.688 42.9867C331.16 43.2622 331.511 43.6089 331.742 44.0267V42.6933H332.968V50H331.742V48.64C331.502 49.0667 331.142 49.4222 330.662 49.7067C330.191 49.9822 329.64 50.12 329.008 50.12C328.36 50.12 327.773 49.96 327.248 49.64C326.724 49.32 326.311 48.8711 326.008 48.2933C325.706 47.7156 325.555 47.0578 325.555 46.32ZM331.742 46.3333C331.742 45.7822 331.631 45.3022 331.408 44.8933C331.186 44.4844 330.884 44.1733 330.502 43.96C330.128 43.7378 329.715 43.6267 329.262 43.6267C328.808 43.6267 328.395 43.7333 328.022 43.9467C327.648 44.16 327.351 44.4711 327.128 44.88C326.906 45.2889 326.795 45.7689 326.795 46.32C326.795 46.88 326.906 47.3689 327.128 47.7867C327.351 48.1956 327.648 48.5111 328.022 48.7333C328.395 48.9467 328.808 49.0533 329.262 49.0533C329.715 49.0533 330.128 48.9467 330.502 48.7333C330.884 48.5111 331.186 48.1956 331.408 47.7867C331.631 47.3689 331.742 46.8844 331.742 46.3333ZM336.232 40.1333V50H335.019V40.1333H336.232ZM338.927 41.5067C338.696 41.5067 338.5 41.4267 338.34 41.2667C338.18 41.1067 338.1 40.9111 338.1 40.68C338.1 40.4489 338.18 40.2533 338.34 40.0933C338.5 39.9333 338.696 39.8533 338.927 39.8533C339.149 39.8533 339.336 39.9333 339.487 40.0933C339.647 40.2533 339.727 40.4489 339.727 40.68C339.727 40.9111 339.647 41.1067 339.487 41.2667C339.336 41.4267 339.149 41.5067 338.927 41.5067ZM339.513 42.6933V50H338.3V42.6933H339.513ZM345.141 42.56C346.03 42.56 346.75 42.8311 347.301 43.3733C347.852 43.9067 348.128 44.68 348.128 45.6933V50H346.928V45.8667C346.928 45.1378 346.746 44.5822 346.381 44.2C346.017 43.8089 345.519 43.6133 344.888 43.6133C344.248 43.6133 343.737 43.8133 343.355 44.2133C342.981 44.6133 342.795 45.1956 342.795 45.96V50H341.581V42.6933H342.795V43.7333C343.035 43.36 343.359 43.0711 343.768 42.8667C344.186 42.6622 344.644 42.56 345.141 42.56ZM353.123 42.5733C353.754 42.5733 354.306 42.7111 354.777 42.9867C355.257 43.2622 355.612 43.6089 355.843 44.0267V42.6933H357.07V50.16C357.07 50.8267 356.928 51.4178 356.643 51.9333C356.359 52.4578 355.95 52.8667 355.417 53.16C354.892 53.4533 354.279 53.6 353.577 53.6C352.617 53.6 351.817 53.3733 351.177 52.92C350.537 52.4667 350.159 51.8489 350.043 51.0667H351.243C351.377 51.5111 351.652 51.8667 352.07 52.1333C352.488 52.4089 352.99 52.5467 353.577 52.5467C354.243 52.5467 354.786 52.3378 355.203 51.92C355.63 51.5022 355.843 50.9156 355.843 50.16V48.6267C355.603 49.0533 355.248 49.4089 354.777 49.6933C354.306 49.9778 353.754 50.12 353.123 50.12C352.474 50.12 351.883 49.96 351.35 49.64C350.826 49.32 350.412 48.8711 350.11 48.2933C349.808 47.7156 349.657 47.0578 349.657 46.32C349.657 45.5733 349.808 44.92 350.11 44.36C350.412 43.7911 350.826 43.3511 351.35 43.04C351.883 42.7289 352.474 42.5733 353.123 42.5733ZM355.843 46.3333C355.843 45.7822 355.732 45.3022 355.51 44.8933C355.288 44.4844 354.986 44.1733 354.603 43.96C354.23 43.7378 353.817 43.6267 353.363 43.6267C352.91 43.6267 352.497 43.7333 352.123 43.9467C351.75 44.16 351.452 44.4711 351.23 44.88C351.008 45.2889 350.897 45.7689 350.897 46.32C350.897 46.88 351.008 47.3689 351.23 47.7867C351.452 48.1956 351.75 48.5111 352.123 48.7333C352.497 48.9467 352.91 49.0533 353.363 49.0533C353.817 49.0533 354.23 48.9467 354.603 48.7333C354.986 48.5111 355.288 48.1956 355.51 47.7867C355.732 47.3689 355.843 46.8844 355.843 46.3333ZM358.667 46.32C358.667 45.5733 358.818 44.92 359.12 44.36C359.423 43.7911 359.836 43.3511 360.36 43.04C360.894 42.7289 361.485 42.5733 362.134 42.5733C362.774 42.5733 363.329 42.7111 363.8 42.9867C364.272 43.2622 364.623 43.6089 364.854 44.0267V42.6933H366.08V50H364.854V48.64C364.614 49.0667 364.254 49.4222 363.774 49.7067C363.303 49.9822 362.752 50.12 362.12 50.12C361.472 50.12 360.885 49.96 360.36 49.64C359.836 49.32 359.423 48.8711 359.12 48.2933C358.818 47.7156 358.667 47.0578 358.667 46.32ZM364.854 46.3333C364.854 45.7822 364.743 45.3022 364.52 44.8933C364.298 44.4844 363.996 44.1733 363.614 43.96C363.24 43.7378 362.827 43.6267 362.374 43.6267C361.92 43.6267 361.507 43.7333 361.134 43.9467C360.76 44.16 360.463 44.4711 360.24 44.88C360.018 45.2889 359.907 45.7689 359.907 46.32C359.907 46.88 360.018 47.3689 360.24 47.7867C360.463 48.1956 360.76 48.5111 361.134 48.7333C361.507 48.9467 361.92 49.0533 362.374 49.0533C362.827 49.0533 363.24 48.9467 363.614 48.7333C363.996 48.5111 364.298 48.1956 364.52 47.7867C364.743 47.3689 364.854 46.8844 364.854 46.3333ZM376.579 50L374.366 46.2H372.899V50H371.686V40.7067H374.686C375.388 40.7067 375.979 40.8267 376.459 41.0667C376.948 41.3067 377.312 41.6311 377.552 42.04C377.792 42.4489 377.912 42.9156 377.912 43.44C377.912 44.08 377.726 44.6444 377.352 45.1333C376.988 45.6222 376.437 45.9467 375.699 46.1067L378.032 50H376.579ZM372.899 45.2267H374.686C375.343 45.2267 375.837 45.0667 376.166 44.7467C376.494 44.4178 376.659 43.9822 376.659 43.44C376.659 42.8889 376.494 42.4622 376.166 42.16C375.846 41.8578 375.352 41.7067 374.686 41.7067H372.899V45.2267ZM382.984 50.12C382.3 50.12 381.677 49.9644 381.117 49.6533C380.566 49.3422 380.131 48.9022 379.811 48.3333C379.5 47.7556 379.344 47.0889 379.344 46.3333C379.344 45.5867 379.504 44.9289 379.824 44.36C380.153 43.7822 380.597 43.3422 381.157 43.04C381.717 42.7289 382.344 42.5733 383.037 42.5733C383.731 42.5733 384.357 42.7289 384.917 43.04C385.477 43.3422 385.917 43.7778 386.237 44.3467C386.566 44.9156 386.731 45.5778 386.731 46.3333C386.731 47.0889 386.562 47.7556 386.224 48.3333C385.895 48.9022 385.446 49.3422 384.877 49.6533C384.309 49.9644 383.677 50.12 382.984 50.12ZM382.984 49.0533C383.42 49.0533 383.829 48.9511 384.211 48.7467C384.593 48.5422 384.9 48.2356 385.131 47.8267C385.371 47.4178 385.491 46.92 385.491 46.3333C385.491 45.7467 385.375 45.2489 385.144 44.84C384.913 44.4311 384.611 44.1289 384.237 43.9333C383.864 43.7289 383.46 43.6267 383.024 43.6267C382.58 43.6267 382.171 43.7289 381.797 43.9333C381.433 44.1289 381.14 44.4311 380.917 44.84C380.695 45.2489 380.584 45.7467 380.584 46.3333C380.584 46.9289 380.691 47.4311 380.904 47.84C381.126 48.2489 381.42 48.5556 381.784 48.76C382.149 48.9556 382.549 49.0533 382.984 49.0533ZM387.873 46.32C387.873 45.5733 388.024 44.92 388.326 44.36C388.628 43.7911 389.042 43.3511 389.566 43.04C390.099 42.7289 390.691 42.5733 391.339 42.5733C391.979 42.5733 392.535 42.7111 393.006 42.9867C393.477 43.2622 393.828 43.6089 394.059 44.0267V42.6933H395.286V50H394.059V48.64C393.819 49.0667 393.459 49.4222 392.979 49.7067C392.508 49.9822 391.957 50.12 391.326 50.12C390.677 50.12 390.091 49.96 389.566 49.64C389.042 49.32 388.628 48.8711 388.326 48.2933C388.024 47.7156 387.873 47.0578 387.873 46.32ZM394.059 46.3333C394.059 45.7822 393.948 45.3022 393.726 44.8933C393.504 44.4844 393.202 44.1733 392.819 43.96C392.446 43.7378 392.033 43.6267 391.579 43.6267C391.126 43.6267 390.713 43.7333 390.339 43.9467C389.966 44.16 389.668 44.4711 389.446 44.88C389.224 45.2889 389.113 45.7689 389.113 46.32C389.113 46.88 389.224 47.3689 389.446 47.7867C389.668 48.1956 389.966 48.5111 390.339 48.7333C390.713 48.9467 391.126 49.0533 391.579 49.0533C392.033 49.0533 392.446 48.9467 392.819 48.7333C393.202 48.5111 393.504 48.1956 393.726 47.7867C393.948 47.3689 394.059 46.8844 394.059 46.3333ZM396.883 46.32C396.883 45.5733 397.034 44.92 397.337 44.36C397.639 43.7911 398.052 43.3511 398.577 43.04C399.11 42.7289 399.705 42.5733 400.363 42.5733C400.932 42.5733 401.461 42.7067 401.95 42.9733C402.439 43.2311 402.812 43.5733 403.07 44V40.1333H404.297V50H403.07V48.6267C402.83 49.0622 402.474 49.4222 402.003 49.7067C401.532 49.9822 400.981 50.12 400.35 50.12C399.701 50.12 399.11 49.96 398.577 49.64C398.052 49.32 397.639 48.8711 397.337 48.2933C397.034 47.7156 396.883 47.0578 396.883 46.32ZM403.07 46.3333C403.07 45.7822 402.959 45.3022 402.737 44.8933C402.514 44.4844 402.212 44.1733 401.83 43.96C401.457 43.7378 401.043 43.6267 400.59 43.6267C400.137 43.6267 399.723 43.7333 399.35 43.9467C398.977 44.16 398.679 44.4711 398.457 44.88C398.234 45.2889 398.123 45.7689 398.123 46.32C398.123 46.88 398.234 47.3689 398.457 47.7867C398.679 48.1956 398.977 48.5111 399.35 48.7333C399.723 48.9467 400.137 49.0533 400.59 49.0533C401.043 49.0533 401.457 48.9467 401.83 48.7333C402.212 48.5111 402.514 48.1956 402.737 47.7867C402.959 47.3689 403.07 46.8844 403.07 46.3333ZM407.6 48.32L406.107 51.9067H405.294L406.267 48.32H407.6ZM418.038 47.9333H413.985L413.238 50H411.958L415.318 40.76H416.718L420.065 50H418.785L418.038 47.9333ZM417.692 46.9467L416.012 42.2533L414.332 46.9467H417.692ZM422.743 44.0533C422.991 43.6178 423.356 43.2622 423.836 42.9867C424.316 42.7111 424.863 42.5733 425.476 42.5733C426.134 42.5733 426.725 42.7289 427.249 43.04C427.774 43.3511 428.187 43.7911 428.489 44.36C428.791 44.92 428.943 45.5733 428.943 46.32C428.943 47.0578 428.791 47.7156 428.489 48.2933C428.187 48.8711 427.769 49.32 427.236 49.64C426.711 49.96 426.125 50.12 425.476 50.12C424.845 50.12 424.289 49.9822 423.809 49.7067C423.338 49.4311 422.983 49.08 422.743 48.6533V50H421.529V40.1333H422.743V44.0533ZM427.703 46.32C427.703 45.7689 427.591 45.2889 427.369 44.88C427.147 44.4711 426.845 44.16 426.463 43.9467C426.089 43.7333 425.676 43.6267 425.223 43.6267C424.778 43.6267 424.365 43.7378 423.983 43.96C423.609 44.1733 423.307 44.4889 423.076 44.9067C422.854 45.3156 422.743 45.7911 422.743 46.3333C422.743 46.8844 422.854 47.3689 423.076 47.7867C423.307 48.1956 423.609 48.5111 423.983 48.7333C424.365 48.9467 424.778 49.0533 425.223 49.0533C425.676 49.0533 426.089 48.9467 426.463 48.7333C426.845 48.5111 427.147 48.1956 427.369 47.7867C427.591 47.3689 427.703 46.88 427.703 46.32ZM433.726 50.12C433.042 50.12 432.42 49.9644 431.86 49.6533C431.309 49.3422 430.873 48.9022 430.553 48.3333C430.242 47.7556 430.086 47.0889 430.086 46.3333C430.086 45.5867 430.246 44.9289 430.566 44.36C430.895 43.7822 431.34 43.3422 431.9 43.04C432.46 42.7289 433.086 42.5733 433.78 42.5733C434.473 42.5733 435.1 42.7289 435.66 43.04C436.22 43.3422 436.66 43.7778 436.98 44.3467C437.309 44.9156 437.473 45.5778 437.473 46.3333C437.473 47.0889 437.304 47.7556 436.966 48.3333C436.637 48.9022 436.189 49.3422 435.62 49.6533C435.051 49.9644 434.42 50.12 433.726 50.12ZM433.726 49.0533C434.162 49.0533 434.571 48.9511 434.953 48.7467C435.335 48.5422 435.642 48.2356 435.873 47.8267C436.113 47.4178 436.233 46.92 436.233 46.3333C436.233 45.7467 436.117 45.2489 435.886 44.84C435.655 44.4311 435.353 44.1289 434.98 43.9333C434.606 43.7289 434.202 43.6267 433.766 43.6267C433.322 43.6267 432.913 43.7289 432.54 43.9333C432.175 44.1289 431.882 44.4311 431.66 44.84C431.437 45.2489 431.326 45.7467 431.326 46.3333C431.326 46.9289 431.433 47.4311 431.646 47.84C431.869 48.2489 432.162 48.5556 432.526 48.76C432.891 48.9556 433.291 49.0533 433.726 49.0533ZM441.788 48.88L444.055 42.6933H445.348L442.482 50H441.068L438.202 42.6933H439.508L441.788 48.88ZM453.209 46.0667C453.209 46.2978 453.196 46.5422 453.169 46.8H447.329C447.373 47.52 447.618 48.0844 448.062 48.4933C448.516 48.8933 449.062 49.0933 449.702 49.0933C450.227 49.0933 450.662 48.9733 451.009 48.7333C451.365 48.4844 451.613 48.1556 451.756 47.7467H453.062C452.867 48.4489 452.476 49.0222 451.889 49.4667C451.302 49.9022 450.573 50.12 449.702 50.12C449.009 50.12 448.387 49.9644 447.836 49.6533C447.293 49.3422 446.867 48.9022 446.556 48.3333C446.245 47.7556 446.089 47.0889 446.089 46.3333C446.089 45.5778 446.24 44.9156 446.542 44.3467C446.845 43.7778 447.267 43.3422 447.809 43.04C448.36 42.7289 448.991 42.5733 449.702 42.5733C450.396 42.5733 451.009 42.7244 451.542 43.0267C452.076 43.3289 452.485 43.7467 452.769 44.28C453.062 44.8044 453.209 45.4 453.209 46.0667ZM451.956 45.8133C451.956 45.3511 451.853 44.9556 451.649 44.6267C451.445 44.2889 451.165 44.0356 450.809 43.8667C450.462 43.6889 450.076 43.6 449.649 43.6C449.036 43.6 448.511 43.7956 448.076 44.1867C447.649 44.5778 447.405 45.12 447.342 45.8133H451.956ZM464.085 40.7067V41.6933H461.552V50H460.339V41.6933H457.792V40.7067H464.085ZM473.259 40.7067L469.752 50H468.352L464.845 40.7067H466.139L469.059 48.72L471.979 40.7067H473.259ZM477.536 50.0933C476.923 50.0933 476.371 49.9867 475.883 49.7733C475.403 49.5511 475.025 49.2489 474.749 48.8667C474.474 48.4756 474.331 48.0267 474.323 47.52H475.616C475.66 47.9556 475.838 48.3244 476.149 48.6267C476.469 48.92 476.931 49.0667 477.536 49.0667C478.114 49.0667 478.567 48.9244 478.896 48.64C479.234 48.3467 479.403 47.9733 479.403 47.52C479.403 47.1644 479.305 46.8756 479.109 46.6533C478.914 46.4311 478.669 46.2622 478.376 46.1467C478.083 46.0311 477.687 45.9067 477.189 45.7733C476.576 45.6133 476.083 45.4533 475.709 45.2933C475.345 45.1333 475.029 44.8844 474.763 44.5467C474.505 44.2 474.376 43.7378 474.376 43.16C474.376 42.6533 474.505 42.2044 474.763 41.8133C475.02 41.4222 475.38 41.12 475.842 40.9067C476.314 40.6933 476.851 40.5867 477.456 40.5867C478.327 40.5867 479.038 40.8044 479.589 41.24C480.149 41.6756 480.465 42.2533 480.536 42.9733H479.202C479.158 42.6178 478.971 42.3067 478.643 42.04C478.314 41.7644 477.878 41.6267 477.336 41.6267C476.829 41.6267 476.416 41.76 476.096 42.0267C475.776 42.2844 475.616 42.6489 475.616 43.12C475.616 43.4578 475.709 43.7333 475.896 43.9467C476.091 44.16 476.327 44.3244 476.603 44.44C476.887 44.5467 477.283 44.6711 477.789 44.8133C478.402 44.9822 478.896 45.1511 479.269 45.32C479.643 45.48 479.963 45.7333 480.229 46.08C480.496 46.4178 480.629 46.88 480.629 47.4667C480.629 47.92 480.509 48.3467 480.269 48.7467C480.029 49.1467 479.674 49.4711 479.202 49.72C478.731 49.9689 478.176 50.0933 477.536 50.0933ZM320.973 64.0933C320.36 64.0933 319.809 63.9867 319.32 63.7733C318.84 63.5511 318.462 63.2489 318.187 62.8667C317.911 62.4756 317.769 62.0267 317.76 61.52H319.053C319.098 61.9556 319.276 62.3244 319.587 62.6267C319.907 62.92 320.369 63.0667 320.973 63.0667C321.551 63.0667 322.004 62.9244 322.333 62.64C322.671 62.3467 322.84 61.9733 322.84 61.52C322.84 61.1644 322.742 60.8756 322.547 60.6533C322.351 60.4311 322.107 60.2622 321.813 60.1467C321.52 60.0311 321.124 59.9067 320.627 59.7733C320.013 59.6133 319.52 59.4533 319.147 59.2933C318.782 59.1333 318.467 58.8844 318.2 58.5467C317.942 58.2 317.813 57.7378 317.813 57.16C317.813 56.6533 317.942 56.2044 318.2 55.8133C318.458 55.4222 318.818 55.12 319.28 54.9067C319.751 54.6933 320.289 54.5867 320.893 54.5867C321.764 54.5867 322.476 54.8044 323.027 55.24C323.587 55.6756 323.902 56.2533 323.973 56.9733H322.64C322.596 56.6178 322.409 56.3067 322.08 56.04C321.751 55.7644 321.316 55.6267 320.773 55.6267C320.267 55.6267 319.853 55.76 319.533 56.0267C319.213 56.2844 319.053 56.6489 319.053 57.12C319.053 57.4578 319.147 57.7333 319.333 57.9467C319.529 58.16 319.764 58.3244 320.04 58.44C320.324 58.5467 320.72 58.6711 321.227 58.8133C321.84 58.9822 322.333 59.1511 322.707 59.32C323.08 59.48 323.4 59.7333 323.667 60.08C323.933 60.4178 324.067 60.88 324.067 61.4667C324.067 61.92 323.947 62.3467 323.707 62.7467C323.467 63.1467 323.111 63.4711 322.64 63.72C322.169 63.9689 321.613 64.0933 320.973 64.0933ZM329.479 56.56C330.03 56.56 330.528 56.68 330.972 56.92C331.417 57.1511 331.763 57.5022 332.012 57.9733C332.27 58.4444 332.399 59.0178 332.399 59.6933V64H331.199V59.8667C331.199 59.1378 331.017 58.5822 330.652 58.2C330.288 57.8089 329.79 57.6133 329.159 57.6133C328.519 57.6133 328.008 57.8133 327.626 58.2133C327.252 58.6133 327.066 59.1956 327.066 59.96V64H325.852V54.1333H327.066V57.7333C327.306 57.36 327.634 57.0711 328.052 56.8667C328.479 56.6622 328.954 56.56 329.479 56.56ZM337.567 64.12C336.883 64.12 336.261 63.9644 335.701 63.6533C335.15 63.3422 334.714 62.9022 334.394 62.3333C334.083 61.7556 333.927 61.0889 333.927 60.3333C333.927 59.5867 334.087 58.9289 334.407 58.36C334.736 57.7822 335.181 57.3422 335.741 57.04C336.301 56.7289 336.927 56.5733 337.621 56.5733C338.314 56.5733 338.941 56.7289 339.501 57.04C340.061 57.3422 340.501 57.7778 340.821 58.3467C341.15 58.9156 341.314 59.5778 341.314 60.3333C341.314 61.0889 341.145 61.7556 340.807 62.3333C340.479 62.9022 340.03 63.3422 339.461 63.6533C338.892 63.9644 338.261 64.12 337.567 64.12ZM337.567 63.0533C338.003 63.0533 338.412 62.9511 338.794 62.7467C339.176 62.5422 339.483 62.2356 339.714 61.8267C339.954 61.4178 340.074 60.92 340.074 60.3333C340.074 59.7467 339.959 59.2489 339.727 58.84C339.496 58.4311 339.194 58.1289 338.821 57.9333C338.447 57.7289 338.043 57.6267 337.607 57.6267C337.163 57.6267 336.754 57.7289 336.381 57.9333C336.016 58.1289 335.723 58.4311 335.501 58.84C335.279 59.2489 335.167 59.7467 335.167 60.3333C335.167 60.9289 335.274 61.4311 335.487 61.84C335.71 62.2489 336.003 62.5556 336.367 62.76C336.732 62.9556 337.132 63.0533 337.567 63.0533ZM352.643 56.6933L350.363 64H349.109L347.349 58.2L345.589 64H344.336L342.043 56.6933H343.283L344.963 62.8267L346.776 56.6933H348.016L349.789 62.84L351.443 56.6933H352.643ZM355.06 57.88C355.274 57.4622 355.576 57.1378 355.967 56.9067C356.367 56.6756 356.851 56.56 357.42 56.56V57.8133H357.1C355.74 57.8133 355.06 58.5511 355.06 60.0267V64H353.847V56.6933H355.06V57.88ZM362.008 64.12C361.323 64.12 360.701 63.9644 360.141 63.6533C359.59 63.3422 359.154 62.9022 358.834 62.3333C358.523 61.7556 358.368 61.0889 358.368 60.3333C358.368 59.5867 358.528 58.9289 358.848 58.36C359.176 57.7822 359.621 57.3422 360.181 57.04C360.741 56.7289 361.368 56.5733 362.061 56.5733C362.754 56.5733 363.381 56.7289 363.941 57.04C364.501 57.3422 364.941 57.7778 365.261 58.3467C365.59 58.9156 365.754 59.5778 365.754 60.3333C365.754 61.0889 365.585 61.7556 365.248 62.3333C364.919 62.9022 364.47 63.3422 363.901 63.6533C363.332 63.9644 362.701 64.12 362.008 64.12ZM362.008 63.0533C362.443 63.0533 362.852 62.9511 363.234 62.7467C363.616 62.5422 363.923 62.2356 364.154 61.8267C364.394 61.4178 364.514 60.92 364.514 60.3333C364.514 59.7467 364.399 59.2489 364.168 58.84C363.936 58.4311 363.634 58.1289 363.261 57.9333C362.888 57.7289 362.483 57.6267 362.048 57.6267C361.603 57.6267 361.194 57.7289 360.821 57.9333C360.456 58.1289 360.163 58.4311 359.941 58.84C359.719 59.2489 359.608 59.7467 359.608 60.3333C359.608 60.9289 359.714 61.4311 359.928 61.84C360.15 62.2489 360.443 62.5556 360.808 62.76C361.172 62.9556 361.572 63.0533 362.008 63.0533ZM370.536 64.12C369.852 64.12 369.23 63.9644 368.67 63.6533C368.118 63.3422 367.683 62.9022 367.363 62.3333C367.052 61.7556 366.896 61.0889 366.896 60.3333C366.896 59.5867 367.056 58.9289 367.376 58.36C367.705 57.7822 368.15 57.3422 368.71 57.04C369.27 56.7289 369.896 56.5733 370.59 56.5733C371.283 56.5733 371.91 56.7289 372.47 57.04C373.03 57.3422 373.47 57.7778 373.79 58.3467C374.118 58.9156 374.283 59.5778 374.283 60.3333C374.283 61.0889 374.114 61.7556 373.776 62.3333C373.447 62.9022 372.998 63.3422 372.43 63.6533C371.861 63.9644 371.23 64.12 370.536 64.12ZM370.536 63.0533C370.972 63.0533 371.381 62.9511 371.763 62.7467C372.145 62.5422 372.452 62.2356 372.683 61.8267C372.923 61.4178 373.043 60.92 373.043 60.3333C373.043 59.7467 372.927 59.2489 372.696 58.84C372.465 58.4311 372.163 58.1289 371.79 57.9333C371.416 57.7289 371.012 57.6267 370.576 57.6267C370.132 57.6267 369.723 57.7289 369.35 57.9333C368.985 58.1289 368.692 58.4311 368.47 58.84C368.247 59.2489 368.136 59.7467 368.136 60.3333C368.136 60.9289 368.243 61.4311 368.456 61.84C368.678 62.2489 368.972 62.5556 369.336 62.76C369.701 62.9556 370.101 63.0533 370.536 63.0533ZM384.665 56.56C385.234 56.56 385.74 56.68 386.185 56.92C386.629 57.1511 386.98 57.5022 387.238 57.9733C387.496 58.4444 387.625 59.0178 387.625 59.6933V64H386.425V59.8667C386.425 59.1378 386.243 58.5822 385.878 58.2C385.523 57.8089 385.038 57.6133 384.425 57.6133C383.794 57.6133 383.292 57.8178 382.918 58.2267C382.545 58.6267 382.358 59.2089 382.358 59.9733V64H381.158V59.8667C381.158 59.1378 380.976 58.5822 380.612 58.2C380.256 57.8089 379.772 57.6133 379.158 57.6133C378.527 57.6133 378.025 57.8178 377.652 58.2267C377.278 58.6267 377.092 59.2089 377.092 59.9733V64H375.878V56.6933H377.092V57.7467C377.332 57.3644 377.652 57.0711 378.052 56.8667C378.46 56.6622 378.909 56.56 379.398 56.56C380.012 56.56 380.554 56.6978 381.025 56.9733C381.496 57.2489 381.847 57.6533 382.078 58.1867C382.283 57.6711 382.62 57.2711 383.092 56.9867C383.563 56.7022 384.087 56.56 384.665 56.56ZM390.869 62.32L389.375 65.9067H388.562L389.535 62.32H390.869ZM400.466 59.2133C400.804 59.2667 401.111 59.4044 401.386 59.6267C401.671 59.8489 401.893 60.1244 402.053 60.4533C402.222 60.7822 402.306 61.1333 402.306 61.5067C402.306 61.9778 402.186 62.4044 401.946 62.7867C401.706 63.16 401.355 63.4578 400.893 63.68C400.44 63.8933 399.902 64 399.28 64H395.813V54.7067H399.146C399.778 54.7067 400.315 54.8133 400.76 55.0267C401.204 55.2311 401.538 55.5111 401.76 55.8667C401.982 56.2222 402.093 56.6222 402.093 57.0667C402.093 57.6178 401.942 58.0756 401.64 58.44C401.346 58.7956 400.955 59.0533 400.466 59.2133ZM397.026 58.72H399.066C399.635 58.72 400.075 58.5867 400.386 58.32C400.698 58.0533 400.853 57.6844 400.853 57.2133C400.853 56.7422 400.698 56.3733 400.386 56.1067C400.075 55.84 399.626 55.7067 399.04 55.7067H397.026V58.72ZM399.173 63C399.778 63 400.249 62.8578 400.586 62.5733C400.924 62.2889 401.093 61.8933 401.093 61.3867C401.093 60.8711 400.915 60.4667 400.56 60.1733C400.204 59.8711 399.729 59.72 399.133 59.72H397.026V63H399.173ZM403.537 60.32C403.537 59.5733 403.688 58.92 403.99 58.36C404.292 57.7911 404.706 57.3511 405.23 57.04C405.764 56.7289 406.355 56.5733 407.004 56.5733C407.644 56.5733 408.199 56.7111 408.67 56.9867C409.141 57.2622 409.492 57.6089 409.724 58.0267V56.6933H410.95V64H409.724V62.64C409.484 63.0667 409.124 63.4222 408.644 63.7067C408.172 63.9822 407.621 64.12 406.99 64.12C406.341 64.12 405.755 63.96 405.23 63.64C404.706 63.32 404.292 62.8711 403.99 62.2933C403.688 61.7156 403.537 61.0578 403.537 60.32ZM409.724 60.3333C409.724 59.7822 409.612 59.3022 409.39 58.8933C409.168 58.4844 408.866 58.1733 408.484 57.96C408.11 57.7378 407.697 57.6267 407.244 57.6267C406.79 57.6267 406.377 57.7333 406.004 57.9467C405.63 58.16 405.332 58.4711 405.11 58.88C404.888 59.2889 404.777 59.7689 404.777 60.32C404.777 60.88 404.888 61.3689 405.11 61.7867C405.332 62.1956 405.63 62.5111 406.004 62.7333C406.377 62.9467 406.79 63.0533 407.244 63.0533C407.697 63.0533 408.11 62.9467 408.484 62.7333C408.866 62.5111 409.168 62.1956 409.39 61.7867C409.612 61.3689 409.724 60.8844 409.724 60.3333ZM414.214 57.88C414.427 57.4622 414.73 57.1378 415.121 56.9067C415.521 56.6756 416.005 56.56 416.574 56.56V57.8133H416.254C414.894 57.8133 414.214 58.5511 414.214 60.0267V64H413.001V56.6933H414.214V57.88ZM419.188 58.0533C419.437 57.6178 419.801 57.2622 420.281 56.9867C420.761 56.7111 421.308 56.5733 421.921 56.5733C422.579 56.5733 423.17 56.7289 423.695 57.04C424.219 57.3511 424.632 57.7911 424.935 58.36C425.237 58.92 425.388 59.5733 425.388 60.32C425.388 61.0578 425.237 61.7156 424.935 62.2933C424.632 62.8711 424.215 63.32 423.681 63.64C423.157 63.96 422.57 64.12 421.921 64.12C421.29 64.12 420.735 63.9822 420.255 63.7067C419.783 63.4311 419.428 63.08 419.188 62.6533V64H417.975V54.1333H419.188V58.0533ZM424.148 60.32C424.148 59.7689 424.037 59.2889 423.815 58.88C423.592 58.4711 423.29 58.16 422.908 57.9467C422.535 57.7333 422.121 57.6267 421.668 57.6267C421.223 57.6267 420.81 57.7378 420.428 57.96C420.055 58.1733 419.752 58.4889 419.521 58.9067C419.299 59.3156 419.188 59.7911 419.188 60.3333C419.188 60.8844 419.299 61.3689 419.521 61.7867C419.752 62.1956 420.055 62.5111 420.428 62.7333C420.81 62.9467 421.223 63.0533 421.668 63.0533C422.121 63.0533 422.535 62.9467 422.908 62.7333C423.29 62.5111 423.592 62.1956 423.815 61.7867C424.037 61.3689 424.148 60.88 424.148 60.32ZM427.612 55.5067C427.381 55.5067 427.185 55.4267 427.025 55.2667C426.865 55.1067 426.785 54.9111 426.785 54.68C426.785 54.4489 426.865 54.2533 427.025 54.0933C427.185 53.9333 427.381 53.8533 427.612 53.8533C427.834 53.8533 428.021 53.9333 428.172 54.0933C428.332 54.2533 428.412 54.4489 428.412 54.68C428.412 54.9111 428.332 55.1067 428.172 55.2667C428.021 55.4267 427.834 55.5067 427.612 55.5067ZM428.198 56.6933V64H426.985V56.6933H428.198ZM431.48 54.1333V64H430.266V54.1333H431.48ZM434.801 62.32L433.307 65.9067H432.494L433.467 62.32H434.801ZM443.959 64.0933C443.097 64.0933 442.31 63.8933 441.599 63.4933C440.888 63.0844 440.323 62.52 439.905 61.8C439.497 61.0711 439.292 60.2533 439.292 59.3467C439.292 58.44 439.497 57.6267 439.905 56.9067C440.323 56.1778 440.888 55.6133 441.599 55.2133C442.31 54.8044 443.097 54.6 443.959 54.6C444.83 54.6 445.621 54.8044 446.332 55.2133C447.043 55.6133 447.603 56.1733 448.012 56.8933C448.421 57.6133 448.625 58.4311 448.625 59.3467C448.625 60.2622 448.421 61.08 448.012 61.8C447.603 62.52 447.043 63.0844 446.332 63.4933C445.621 63.8933 444.83 64.0933 443.959 64.0933ZM443.959 63.04C444.608 63.04 445.19 62.8889 445.705 62.5867C446.23 62.2844 446.639 61.8533 446.932 61.2933C447.234 60.7333 447.385 60.0844 447.385 59.3467C447.385 58.6 447.234 57.9511 446.932 57.4C446.639 56.84 446.234 56.4089 445.719 56.1067C445.203 55.8044 444.617 55.6533 443.959 55.6533C443.301 55.6533 442.714 55.8044 442.199 56.1067C441.683 56.4089 441.274 56.84 440.972 57.4C440.679 57.9511 440.532 58.6 440.532 59.3467C440.532 60.0844 440.679 60.7333 440.972 61.2933C441.274 61.8533 441.683 62.2844 442.199 62.5867C442.723 62.8889 443.31 63.04 443.959 63.04ZM449.774 60.32C449.774 59.5733 449.925 58.92 450.227 58.36C450.529 57.7911 450.943 57.3511 451.467 57.04C452.001 56.7289 452.596 56.5733 453.254 56.5733C453.823 56.5733 454.352 56.7067 454.841 56.9733C455.329 57.2311 455.703 57.5733 455.961 58V54.1333H457.187V64H455.961V62.6267C455.721 63.0622 455.365 63.4222 454.894 63.7067C454.423 63.9822 453.872 64.12 453.241 64.12C452.592 64.12 452.001 63.96 451.467 63.64C450.943 63.32 450.529 62.8711 450.227 62.2933C449.925 61.7156 449.774 61.0578 449.774 60.32ZM455.961 60.3333C455.961 59.7822 455.849 59.3022 455.627 58.8933C455.405 58.4844 455.103 58.1733 454.721 57.96C454.347 57.7378 453.934 57.6267 453.481 57.6267C453.027 57.6267 452.614 57.7333 452.241 57.9467C451.867 58.16 451.569 58.4711 451.347 58.88C451.125 59.2889 451.014 59.7689 451.014 60.32C451.014 60.88 451.125 61.3689 451.347 61.7867C451.569 62.1956 451.867 62.5111 452.241 62.7333C452.614 62.9467 453.027 63.0533 453.481 63.0533C453.934 63.0533 454.347 62.9467 454.721 62.7333C455.103 62.5111 455.405 62.1956 455.627 61.7867C455.849 61.3689 455.961 60.8844 455.961 60.3333ZM459.864 55.5067C459.633 55.5067 459.438 55.4267 459.278 55.2667C459.118 55.1067 459.038 54.9111 459.038 54.68C459.038 54.4489 459.118 54.2533 459.278 54.0933C459.438 53.9333 459.633 53.8533 459.864 53.8533C460.086 53.8533 460.273 53.9333 460.424 54.0933C460.584 54.2533 460.664 54.4489 460.664 54.68C460.664 54.9111 460.584 55.1067 460.424 55.2667C460.273 55.4267 460.086 55.5067 459.864 55.5067ZM460.451 56.6933V64H459.238V56.6933H460.451ZM465.106 64.12C464.546 64.12 464.043 64.0267 463.599 63.84C463.154 63.6444 462.803 63.3778 462.546 63.04C462.288 62.6933 462.146 62.2978 462.119 61.8533H463.372C463.408 62.2178 463.577 62.5156 463.879 62.7467C464.19 62.9778 464.594 63.0933 465.092 63.0933C465.554 63.0933 465.919 62.9911 466.186 62.7867C466.452 62.5822 466.586 62.3244 466.586 62.0133C466.586 61.6933 466.443 61.4578 466.159 61.3067C465.874 61.1467 465.434 60.9911 464.839 60.84C464.297 60.6978 463.852 60.5556 463.506 60.4133C463.168 60.2622 462.874 60.0444 462.626 59.76C462.386 59.4667 462.266 59.0844 462.266 58.6133C462.266 58.24 462.377 57.8978 462.599 57.5867C462.821 57.2756 463.137 57.0311 463.546 56.8533C463.954 56.6667 464.421 56.5733 464.946 56.5733C465.754 56.5733 466.408 56.7778 466.906 57.1867C467.403 57.5956 467.67 58.1556 467.706 58.8667H466.492C466.466 58.4844 466.31 58.1778 466.026 57.9467C465.75 57.7156 465.377 57.6 464.906 57.6C464.47 57.6 464.123 57.6933 463.866 57.88C463.608 58.0667 463.479 58.3111 463.479 58.6133C463.479 58.8533 463.554 59.0533 463.706 59.2133C463.866 59.3644 464.061 59.4889 464.292 59.5867C464.532 59.6756 464.861 59.7778 465.279 59.8933C465.803 60.0356 466.23 60.1778 466.559 60.32C466.888 60.4533 467.168 60.6578 467.399 60.9333C467.639 61.2089 467.763 61.5689 467.772 62.0133C467.772 62.4133 467.661 62.7733 467.439 63.0933C467.217 63.4133 466.901 63.6667 466.492 63.8533C466.092 64.0311 465.63 64.12 465.106 64.12ZM473.112 56.56C473.663 56.56 474.161 56.68 474.605 56.92C475.049 57.1511 475.396 57.5022 475.645 57.9733C475.903 58.4444 476.032 59.0178 476.032 59.6933V64H474.832V59.8667C474.832 59.1378 474.649 58.5822 474.285 58.2C473.921 57.8089 473.423 57.6133 472.792 57.6133C472.152 57.6133 471.641 57.8133 471.258 58.2133C470.885 58.6133 470.698 59.1956 470.698 59.96V64H469.485V54.1333H470.698V57.7333C470.938 57.36 471.267 57.0711 471.685 56.8667C472.112 56.6622 472.587 56.56 473.112 56.56ZM477.56 60.32C477.56 59.5733 477.711 58.92 478.014 58.36C478.316 57.7911 478.729 57.3511 479.254 57.04C479.787 56.7289 480.378 56.5733 481.027 56.5733C481.667 56.5733 482.223 56.7111 482.694 56.9867C483.165 57.2622 483.516 57.6089 483.747 58.0267V56.6933H484.974V64H483.747V62.64C483.507 63.0667 483.147 63.4222 482.667 63.7067C482.196 63.9822 481.645 64.12 481.014 64.12C480.365 64.12 479.778 63.96 479.254 63.64C478.729 63.32 478.316 62.8711 478.014 62.2933C477.711 61.7156 477.56 61.0578 477.56 60.32ZM483.747 60.3333C483.747 59.7822 483.636 59.3022 483.414 58.8933C483.191 58.4844 482.889 58.1733 482.507 57.96C482.134 57.7378 481.72 57.6267 481.267 57.6267C480.814 57.6267 480.4 57.7333 480.027 57.9467C479.654 58.16 479.356 58.4711 479.134 58.88C478.911 59.2889 478.8 59.7689 478.8 60.32C478.8 60.88 478.911 61.3689 479.134 61.7867C479.356 62.1956 479.654 62.5111 480.027 62.7333C480.4 62.9467 480.814 63.0533 481.267 63.0533C481.72 63.0533 482.134 62.9467 482.507 62.7333C482.889 62.5111 483.191 62.1956 483.414 61.7867C483.636 61.3689 483.747 60.8844 483.747 60.3333Z" fill="white"/>
<path d="M326.491 19.6613V30.8133H325.035V25.7573H319.355V30.8133H317.899V19.6613H319.355V24.5573H325.035V19.6613H326.491ZM336.977 26.0933C336.977 26.3706 336.961 26.664 336.929 26.9733H329.921C329.974 27.8373 330.267 28.5146 330.801 29.0053C331.345 29.4853 332.001 29.7253 332.769 29.7253C333.398 29.7253 333.921 29.5813 334.337 29.2933C334.763 28.9946 335.062 28.6 335.233 28.1093H336.801C336.566 28.952 336.097 29.64 335.393 30.1733C334.689 30.696 333.814 30.9573 332.769 30.9573C331.937 30.9573 331.19 30.7706 330.529 30.3973C329.878 30.024 329.366 29.496 328.993 28.8133C328.619 28.12 328.433 27.32 328.433 26.4133C328.433 25.5066 328.614 24.712 328.977 24.0293C329.339 23.3466 329.846 22.824 330.497 22.4613C331.158 22.088 331.915 21.9013 332.769 21.9013C333.601 21.9013 334.337 22.0826 334.977 22.4453C335.617 22.808 336.107 23.3093 336.449 23.9493C336.801 24.5786 336.977 25.2933 336.977 26.0933ZM335.473 25.7893C335.473 25.2346 335.35 24.76 335.105 24.3653C334.859 23.96 334.523 23.656 334.097 23.4533C333.681 23.24 333.217 23.1333 332.705 23.1333C331.969 23.1333 331.339 23.368 330.817 23.8373C330.305 24.3066 330.011 24.9573 329.937 25.7893H335.473ZM338.355 26.3973C338.355 25.5013 338.536 24.7173 338.899 24.0453C339.261 23.3626 339.757 22.8346 340.387 22.4613C341.027 22.088 341.736 21.9013 342.515 21.9013C343.283 21.9013 343.949 22.0666 344.515 22.3973C345.08 22.728 345.501 23.144 345.779 23.6453V22.0453H347.251V30.8133H345.779V29.1813C345.491 29.6933 345.059 30.12 344.483 30.4613C343.917 30.792 343.256 30.9573 342.499 30.9573C341.72 30.9573 341.016 30.7653 340.387 30.3813C339.757 29.9973 339.261 29.4586 338.899 28.7653C338.536 28.072 338.355 27.2826 338.355 26.3973ZM345.779 26.4133C345.779 25.752 345.645 25.176 345.379 24.6853C345.112 24.1946 344.749 23.8213 344.291 23.5653C343.843 23.2986 343.347 23.1653 342.803 23.1653C342.259 23.1653 341.763 23.2933 341.315 23.5493C340.867 23.8053 340.509 24.1786 340.243 24.6693C339.976 25.16 339.843 25.736 339.843 26.3973C339.843 27.0693 339.976 27.656 340.243 28.1573C340.509 28.648 340.867 29.0266 341.315 29.2933C341.763 29.5493 342.259 29.6773 342.803 29.6773C343.347 29.6773 343.843 29.5493 344.291 29.2933C344.749 29.0266 345.112 28.648 345.379 28.1573C345.645 27.656 345.779 27.0746 345.779 26.4133ZM349.167 26.3973C349.167 25.5013 349.348 24.7173 349.711 24.0453C350.074 23.3626 350.57 22.8346 351.199 22.4613C351.839 22.088 352.554 21.9013 353.343 21.9013C354.026 21.9013 354.66 22.0613 355.247 22.3813C355.834 22.6906 356.282 23.1013 356.591 23.6133V18.9733H358.063V30.8133H356.591V29.1653C356.303 29.688 355.876 30.12 355.311 30.4613C354.746 30.792 354.084 30.9573 353.327 30.9573C352.548 30.9573 351.839 30.7653 351.199 30.3813C350.57 29.9973 350.074 29.4586 349.711 28.7653C349.348 28.072 349.167 27.2826 349.167 26.3973ZM356.591 26.4133C356.591 25.752 356.458 25.176 356.191 24.6853C355.924 24.1946 355.562 23.8213 355.103 23.5653C354.655 23.2986 354.159 23.1653 353.615 23.1653C353.071 23.1653 352.575 23.2933 352.127 23.5493C351.679 23.8053 351.322 24.1786 351.055 24.6693C350.788 25.16 350.655 25.736 350.655 26.3973C350.655 27.0693 350.788 27.656 351.055 28.1573C351.322 28.648 351.679 29.0266 352.127 29.2933C352.575 29.5493 353.071 29.6773 353.615 29.6773C354.159 29.6773 354.655 29.5493 355.103 29.2933C355.562 29.0266 355.924 28.648 356.191 28.1573C356.458 27.656 356.591 27.0746 356.591 26.4133ZM369.845 30.9253C368.81 30.9253 367.866 30.6853 367.013 30.2053C366.16 29.7146 365.482 29.0373 364.981 28.1733C364.49 27.2986 364.245 26.3173 364.245 25.2293C364.245 24.1413 364.49 23.1653 364.981 22.3013C365.482 21.4266 366.16 20.7493 367.013 20.2693C367.866 19.7786 368.81 19.5333 369.845 19.5333C370.89 19.5333 371.84 19.7786 372.693 20.2693C373.546 20.7493 374.218 21.4213 374.709 22.2853C375.2 23.1493 375.445 24.1306 375.445 25.2293C375.445 26.328 375.2 27.3093 374.709 28.1733C374.218 29.0373 373.546 29.7146 372.693 30.2053C371.84 30.6853 370.89 30.9253 369.845 30.9253ZM369.845 29.6613C370.624 29.6613 371.322 29.48 371.941 29.1173C372.57 28.7546 373.061 28.2373 373.413 27.5653C373.776 26.8933 373.957 26.1146 373.957 25.2293C373.957 24.3333 373.776 23.5546 373.413 22.8933C373.061 22.2213 372.576 21.704 371.957 21.3413C371.338 20.9786 370.634 20.7973 369.845 20.7973C369.056 20.7973 368.352 20.9786 367.733 21.3413C367.114 21.704 366.624 22.2213 366.261 22.8933C365.909 23.5546 365.733 24.3333 365.733 25.2293C365.733 26.1146 365.909 26.8933 366.261 27.5653C366.624 28.2373 367.114 28.7546 367.733 29.1173C368.362 29.48 369.066 29.6613 369.845 29.6613ZM380.935 23.2453H379.095V30.8133H377.639V23.2453H376.503V22.0453H377.639V21.4213C377.639 20.44 377.89 19.7253 378.391 19.2773C378.903 18.8186 379.719 18.5893 380.839 18.5893V19.8053C380.199 19.8053 379.746 19.9333 379.479 20.1893C379.223 20.4346 379.095 20.8453 379.095 21.4213V22.0453H380.935V23.2453ZM386.201 23.2453H384.361V30.8133H382.905V23.2453H381.769V22.0453H382.905V21.4213C382.905 20.44 383.156 19.7253 383.657 19.2773C384.169 18.8186 384.985 18.5893 386.105 18.5893V19.8053C385.465 19.8053 385.012 19.9333 384.745 20.1893C384.489 20.4346 384.361 20.8453 384.361 21.4213V22.0453H386.201V23.2453ZM388.651 20.6213C388.373 20.6213 388.139 20.5253 387.947 20.3333C387.755 20.1413 387.659 19.9066 387.659 19.6293C387.659 19.352 387.755 19.1173 387.947 18.9253C388.139 18.7333 388.373 18.6373 388.651 18.6373C388.917 18.6373 389.141 18.7333 389.323 18.9253C389.515 19.1173 389.611 19.352 389.611 19.6293C389.611 19.9066 389.515 20.1413 389.323 20.3333C389.141 20.5253 388.917 20.6213 388.651 20.6213ZM389.355 22.0453V30.8133H387.899V22.0453H389.355ZM391.292 26.4133C391.292 25.5066 391.473 24.7173 391.836 24.0453C392.199 23.3626 392.7 22.8346 393.34 22.4613C393.991 22.088 394.732 21.9013 395.564 21.9013C396.641 21.9013 397.527 22.1626 398.22 22.6853C398.924 23.208 399.388 23.9333 399.612 24.8613H398.044C397.895 24.328 397.601 23.9066 397.164 23.5973C396.737 23.288 396.204 23.1333 395.564 23.1333C394.732 23.1333 394.06 23.4213 393.548 23.9973C393.036 24.5626 392.78 25.368 392.78 26.4133C392.78 27.4693 393.036 28.2853 393.548 28.8613C394.06 29.4373 394.732 29.7253 395.564 29.7253C396.204 29.7253 396.737 29.576 397.164 29.2773C397.591 28.9786 397.884 28.552 398.044 27.9973H399.612C399.377 28.8933 398.908 29.6133 398.204 30.1573C397.5 30.6906 396.62 30.9573 395.564 30.9573C394.732 30.9573 393.991 30.7706 393.34 30.3973C392.7 30.024 392.199 29.496 391.836 28.8133C391.473 28.1306 391.292 27.3306 391.292 26.4133ZM409.555 26.0933C409.555 26.3706 409.539 26.664 409.507 26.9733H402.499C402.552 27.8373 402.845 28.5146 403.379 29.0053C403.923 29.4853 404.579 29.7253 405.347 29.7253C405.976 29.7253 406.499 29.5813 406.915 29.2933C407.341 28.9946 407.64 28.6 407.811 28.1093H409.379C409.144 28.952 408.675 29.64 407.971 30.1733C407.267 30.696 406.392 30.9573 405.347 30.9573C404.515 30.9573 403.768 30.7706 403.107 30.3973C402.456 30.024 401.944 29.496 401.571 28.8133C401.197 28.12 401.011 27.32 401.011 26.4133C401.011 25.5066 401.192 24.712 401.555 24.0293C401.917 23.3466 402.424 22.824 403.075 22.4613C403.736 22.088 404.493 21.9013 405.347 21.9013C406.179 21.9013 406.915 22.0826 407.555 22.4453C408.195 22.808 408.685 23.3093 409.027 23.9493C409.379 24.5786 409.555 25.2933 409.555 26.0933ZM408.051 25.7893C408.051 25.2346 407.928 24.76 407.683 24.3653C407.437 23.96 407.101 23.656 406.675 23.4533C406.259 23.24 405.795 23.1333 405.283 23.1333C404.547 23.1333 403.917 23.368 403.395 23.8373C402.883 24.3066 402.589 24.9573 402.515 25.7893H408.051Z" fill="#AFFC41"/>
</svg>
