<svg width="40" height="40" viewBox="0 0 40 40" fill="none" xmlns="http://www.w3.org/2000/svg">
<path d="M23.1718 22.2398C22.2811 23.2551 21.1966 24.0858 19.976 24.688V28.1492C19.976 28.4552 19.8544 28.7486 19.6381 28.965C19.4217 29.1813 19.1282 29.3029 18.8223 29.3029H11.8999C11.5939 29.3029 11.3005 29.1813 11.0841 28.965C10.8677 28.7486 10.7462 28.4552 10.7462 28.1492V24.688C8.31494 23.4744 6.45628 21.3562 5.56907 18.7878C4.68186 16.2194 4.8368 13.4056 6.00065 10.9502C7.1645 8.49475 9.2445 6.59338 11.7943 5.6541C14.3441 4.71483 17.1605 4.8125 19.6391 5.92615M10.7462 35H19.976" stroke="white" stroke-width="3" stroke-linecap="round" stroke-linejoin="round"/>
<path d="M20.839 12.927C20.029 12.7862 20.029 11.6232 20.839 11.4825C22.2725 11.2317 23.5991 10.5604 24.6501 9.55373C25.7012 8.54709 26.4291 7.25066 26.7414 5.82925L26.7899 5.60312C26.9652 4.80243 28.1051 4.79782 28.2874 5.59619L28.3474 5.85694C28.6697 7.27285 29.4036 8.56179 30.4568 9.56157C31.5099 10.5613 32.8352 11.2273 34.266 11.4756C35.0805 11.6186 35.0805 12.7862 34.266 12.9293C32.8357 13.178 31.5108 13.8441 30.4581 14.8438C29.4054 15.8436 28.6718 17.1323 28.3497 18.5479L28.2897 18.8086C28.1074 19.607 26.9675 19.6024 26.7922 18.8017L26.746 18.5779C26.4334 17.1559 25.7048 15.859 24.6529 14.8523C23.601 13.8456 22.2734 13.1769 20.839 12.927Z" stroke="white" stroke-width="3" stroke-linecap="round" stroke-linejoin="round"/>
</svg>
