<svg width="45" height="45" viewBox="0 0 45 45" fill="none" xmlns="http://www.w3.org/2000/svg">
<path d="M9.77906 14.8594V34.4812L29.3634 37.9612V18.3328M27.5456 8.73469L19.0069 16.2394M37.68 30.7078L29.5687 37.8366M38.475 10.5872V25.1203M9.68906 19.8497C9.68906 19.8497 5.35312 26.3944 7.45312 27.8344C8.45062 28.5187 9.36281 27.09 9.73687 26.1009M6.53437 15.6975L4.21875 15.8175M6.96094 13.1044L4.91062 12.0216M8.95781 11.5912L8.58281 9.30375M19.2544 7.03781L38.46 10.4934L29.3625 18.2456L9.82406 14.7731L19.2544 7.03781ZM40.2319 27.8344C40.2319 27.8344 37.3537 22.9547 35.7206 21.8062C34.08 20.6512 32.4975 21.7772 33.7641 23.9222C34.9659 25.6875 36.2147 26.0362 37.4372 29.6316C37.7156 30.4097 39.0234 31.7784 40.1128 31.1091C41.2003 30.4387 40.7503 28.9922 40.2319 27.8344Z" stroke="orange" stroke-width="2" stroke-linecap="round" stroke-linejoin="round"/>
<path d="M16.2375 23.8219C16.3669 25.3275 13.2281 25.3359 13.1756 23.7984L13.1869 20.67C13.275 19.1194 16.0088 18.8981 16.2497 20.6822L16.2375 23.8219ZM24.9656 25.4559C25.0931 26.9616 21.9544 26.97 21.9019 25.4325L21.9131 22.3041C22.0013 20.7534 24.735 20.5322 24.9769 22.3163L24.9656 25.4559Z" stroke="orange" stroke-width="2" stroke-linecap="round" stroke-linejoin="round"/>
</svg>
