<svg width="40" height="40" viewBox="0 0 40 40" fill="none" xmlns="http://www.w3.org/2000/svg">
<path d="M13.1667 30L16.3333 14.8333L13.3333 16V20H9.99999V13.8333L18.4167 10.2917C18.8056 10.125 19.2156 10.0211 19.6467 9.98001C20.0778 9.9389 20.4872 9.98723 20.875 10.125C21.2628 10.2628 21.6311 10.4572 21.98 10.7083C22.3289 10.9595 22.6133 11.2789 22.8333 11.6667L24.5 14.3333C25.2778 15.5833 26.2989 16.5628 27.5633 17.2717C28.8278 17.9806 30.1955 18.3345 31.6667 18.3333V21.6667C29.7222 21.6667 27.9794 21.2778 26.4383 20.5C24.8972 19.7222 23.5844 18.7222 22.5 17.5L21.5 20L25 23.3333V30H21.6667V24.9167L18.4167 21.9167L16.6667 30H13.1667ZM22.5 9.16668C21.5833 9.16668 20.7989 8.84057 20.1467 8.18834C19.4944 7.53612 19.1678 6.75112 19.1667 5.83334C19.1656 4.91557 19.4922 4.13112 20.1467 3.48001C20.8011 2.8289 21.5856 2.50223 22.5 2.50001C23.4144 2.49779 24.1994 2.82446 24.855 3.48001C25.5106 4.13557 25.8367 4.92001 25.8333 5.83334C25.83 6.74668 25.5039 7.53168 24.855 8.18834C24.2061 8.84501 23.4211 9.17112 22.5 9.16668ZM20 36.6667C17.6944 36.6667 15.5278 36.2289 13.5 35.3533C11.4722 34.4778 9.70833 33.2906 8.20833 31.7917C6.70833 30.2928 5.52111 28.5289 4.64666 26.5C3.77222 24.4711 3.33444 22.3045 3.33333 20C3.33333 16.6945 4.18777 13.7222 5.89666 11.0833C7.60555 8.44446 9.83444 6.44446 12.5833 5.08334L14.0833 8.04168C11.8889 9.12501 10.1044 10.7295 8.72999 12.855C7.35555 14.9806 6.66777 17.3622 6.66666 20C6.66666 23.7222 7.95833 26.875 10.5417 29.4583C13.125 32.0417 16.2778 33.3333 20 33.3333C23.7222 33.3333 26.875 32.0417 29.4583 29.4583C32.0417 26.875 33.3333 23.7222 33.3333 20H36.6667C36.6667 22.3056 36.2289 24.4722 35.3533 26.5C34.4778 28.5278 33.2906 30.2917 31.7917 31.7917C30.2928 33.2917 28.5289 34.4795 26.5 35.355C24.4711 36.2306 22.3044 36.6678 20 36.6667Z" fill="white"/>
</svg>
