<svg width="37" height="37" viewBox="0 0 37 37" fill="none" xmlns="http://www.w3.org/2000/svg">
<path d="M23.5972 22.5833H30.5585C31.1842 22.5836 31.7843 22.8323 32.2267 23.2748C32.6692 23.7173 32.9179 24.3173 32.9182 24.9431V24.9558C32.9049 25.1739 32.869 25.39 32.8111 25.6008C32.7017 25.9927 32.4881 26.5092 32.0632 27.024C31.2076 28.06 29.5193 29.0625 26.2099 29.0625C25.0938 29.0625 24.1622 28.9476 23.3861 28.7575C23.4283 28.659 23.468 28.5617 23.5054 28.4658C24.2491 28.6441 25.1405 28.75 26.2099 28.75C29.4473 28.75 31.0373 27.7746 31.8188 26.8271C32.1394 26.4465 32.3743 26.0013 32.5076 25.5217L32.5105 25.5111L32.5132 25.5003C32.5466 25.3689 32.5816 25.2165 32.5958 25.0794L32.5958 25.0795L32.5967 25.0699L32.6013 25.0206L32.6063 24.9672L32.6056 24.9137C32.5905 23.7965 31.6796 22.8958 30.5589 22.8958H23.7276C23.687 22.7902 23.6435 22.686 23.5972 22.5833ZM4.09873 25.6903L4.09877 25.6903L4.0978 25.6823C4.08945 25.6126 4.08462 25.5426 4.08333 25.4724V25.0521C4.08333 24.3973 4.34343 23.7694 4.80641 23.3064C5.26939 22.8434 5.89733 22.5833 6.55208 22.5833H18.1146C18.7693 22.5833 19.3973 22.8434 19.8603 23.3064C20.3232 23.7694 20.5833 24.3973 20.5833 25.0521V25.4632C20.5805 25.5401 20.5752 25.6169 20.5674 25.6935C20.4572 26.6728 20.1049 27.6094 19.5424 28.4186C18.4985 29.9113 16.4227 31.375 12.3333 31.375C8.24504 31.375 6.16868 29.9105 5.12437 28.4203C4.56086 27.6097 4.20835 26.6714 4.09873 25.6903ZM4.39583 25.4483V25.492L4.39964 25.5355L4.41043 25.6588L4.41172 25.6735L4.41344 25.6882C4.52078 26.6029 4.85108 27.4772 5.37532 28.2344L5.3753 28.2344L5.37854 28.2391C6.35635 29.6345 8.32744 31.0625 12.3333 31.0625C16.3389 31.0625 18.3106 29.6347 19.2871 28.2383L19.2894 28.235C19.8143 27.478 20.1453 26.6036 20.2532 25.6888L20.2549 25.6738L20.2562 25.6588L20.267 25.5355L20.2708 25.492V25.4483V25.0521C20.2708 24.4802 20.0437 23.9318 19.6393 23.5274C19.2349 23.123 18.6865 22.8958 18.1146 22.8958H6.55208C5.98021 22.8958 5.43176 23.123 5.02738 23.5274C4.62301 23.9318 4.39583 24.4802 4.39583 25.0521V25.4483ZM8.90092 8.90092C7.99059 9.81126 7.47917 11.0459 7.47917 12.3333C7.47917 13.6207 7.99059 14.8554 8.90092 15.7658C9.81125 16.6761 11.0459 17.1875 12.3333 17.1875C13.6207 17.1875 14.8554 16.6761 15.7657 15.7658C16.6761 14.8554 17.1875 13.6207 17.1875 12.3333C17.1875 11.0459 16.6761 9.81126 15.7657 8.90092C14.8554 7.99059 13.6207 7.47917 12.3333 7.47917C11.0459 7.47917 9.81125 7.99059 8.90092 8.90092ZM8.67995 8.67995C9.64889 7.71102 10.963 7.16667 12.3333 7.16667C13.7036 7.16667 15.0178 7.71102 15.9867 8.67995C16.9557 9.64889 17.5 10.9631 17.5 12.3333C17.5 13.7036 16.9557 15.0178 15.9867 15.9867C15.0178 16.9557 13.7036 17.5 12.3333 17.5C10.963 17.5 9.64889 16.9557 8.67995 15.9867C7.71101 15.0178 7.16667 13.7036 7.16667 12.3333C7.16667 10.9631 7.71101 9.64889 8.67995 8.67995ZM23.866 11.5327C23.2448 12.1539 22.8958 12.9965 22.8958 13.875C22.8958 14.7535 23.2448 15.5961 23.866 16.2173C24.4873 16.8385 25.3298 17.1875 26.2083 17.1875C27.0869 17.1875 27.9294 16.8385 28.5506 16.2173C29.1718 15.5961 29.5208 14.7535 29.5208 13.875C29.5208 12.9965 29.1718 12.1539 28.5506 11.5327C27.9294 10.9115 27.0869 10.5625 26.2083 10.5625C25.3298 10.5625 24.4873 10.9115 23.866 11.5327ZM23.6451 11.3117C24.3249 10.6319 25.2469 10.25 26.2083 10.25C27.1697 10.25 28.0918 10.6319 28.7716 11.3117C29.4514 11.9916 29.8333 12.9136 29.8333 13.875C29.8333 14.8364 29.4514 15.7584 28.7716 16.4383C28.0918 17.1181 27.1697 17.5 26.2083 17.5C25.2469 17.5 24.3249 17.1181 23.6451 16.4383C22.9653 15.7584 22.5833 14.8364 22.5833 13.875C22.5833 12.9136 22.9653 11.9916 23.6451 11.3117Z" fill="gold" stroke="gold" stroke-width="2"/>
</svg>
