<svg width="40" height="40" viewBox="0 0 40 40" fill="none" xmlns="http://www.w3.org/2000/svg">
<path d="M19 13.7143H22V15.1429H19V13.7143ZM19 8H22V9.42857H19V8ZM19 16.5714H22V18H19V16.5714Z" fill="white"/>
<path d="M33.5 19.5361V15C28.927 14.9985 24.4963 16.6024 20.969 19.5361H19.031C15.5037 16.6024 11.073 14.9985 6.5 15V19.5361C6.10218 19.5361 5.72064 19.6954 5.43934 19.9789C5.15804 20.2625 5 20.6471 5 21.0481V24.0722C5 24.4732 5.15804 24.8578 5.43934 25.1413C5.72064 25.4249 6.10218 25.5842 6.5 25.5842V31.6323C11.5132 31.6272 16.3402 33.5465 20 37C23.6639 33.553 28.4882 31.6348 33.5 31.6323V25.5842C33.8978 25.5842 34.2794 25.4249 34.5607 25.1413C34.842 24.8578 35 24.4732 35 24.0722V21.0481C35 20.6471 34.842 20.2625 34.5607 19.9789C34.2794 19.6954 33.8978 19.5361 33.5 19.5361Z" fill="white"/>
<path d="M15.5 9C16.3284 9 17 8.32843 17 7.5C17 6.67157 16.3284 6 15.5 6C14.6716 6 14 6.67157 14 7.5C14 8.32843 14.6716 9 15.5 9Z" fill="white"/>
<path d="M24.5 9C25.3284 9 26 8.32843 26 7.5C26 6.67157 25.3284 6 24.5 6C23.6716 6 23 6.67157 23 7.5C23 8.32843 23.6716 9 24.5 9Z" fill="white"/>
<path d="M26.5 14H14.5C13.3069 13.9988 12.163 13.5243 11.3193 12.6807C10.4757 11.837 10.0012 10.6931 10 9.5V6.5C10.0012 5.30689 10.4757 4.16299 11.3193 3.31934C12.163 2.47568 13.3069 2.00119 14.5 2H26.5C27.6931 2.00119 28.837 2.47568 29.6807 3.31934C30.5243 4.16299 30.9988 5.30689 31 6.5V9.5C30.9988 10.6931 30.5243 11.837 29.6807 12.6807C28.837 13.5243 27.6931 13.9988 26.5 14ZM14.5 5C14.1022 5 13.7206 5.15804 13.4393 5.43934C13.158 5.72064 13 6.10218 13 6.5V9.5C13 9.89782 13.158 10.2794 13.4393 10.5607C13.7206 10.842 14.1022 11 14.5 11H26.5C26.8978 11 27.2794 10.842 27.5607 10.5607C27.842 10.2794 28 9.89782 28 9.5V6.5C28 6.10218 27.842 5.72064 27.5607 5.43934C27.2794 5.15804 26.8978 5 26.5 5H14.5Z" fill="white"/>
</svg>
