<svg width="40" height="40" viewBox="0 0 40 40" fill="none" xmlns="http://www.w3.org/2000/svg">
<path d="M12.5289 16.476L8.71212 14.726L9.69408 12.9585L13.5109 14.7173L12.5289 16.4673V16.476ZM19.9214 13.5693C20.2007 13.5693 20.4245 13.326 20.4245 13.0355C20.4245 12.7432 20.2007 12.5 19.9214 12.5C19.6421 12.5 19.42 12.745 19.42 13.0355C19.42 13.326 19.6421 13.5693 19.9231 13.5693M18.5543 13.2595C18.5739 13.2033 18.5838 13.1441 18.5838 13.0845C18.5838 12.7922 18.3617 12.549 18.0824 12.549C17.8135 12.549 17.581 12.7922 17.581 13.0845C17.581 13.3767 17.8135 13.6182 18.0841 13.6182C18.1466 13.6166 18.2083 13.6035 18.2663 13.5797L18.5161 13.851C18.5019 13.9022 18.4954 13.9553 18.497 14.0085C18.497 14.299 18.7191 14.5422 18.9984 14.5422C19.2673 14.5422 19.4894 14.299 19.4894 14.0068C19.4894 13.7145 19.2691 13.473 18.9984 13.473C18.9324 13.4734 18.867 13.4865 18.8058 13.5115L18.5543 13.2595ZM17.6781 13.949C17.6781 14.2413 17.4474 14.4845 17.1767 14.4845H17.1004L16.7621 15.0865C16.8151 15.1743 16.8432 15.2751 16.8432 15.3779C16.8432 15.4807 16.8151 15.5815 16.7621 15.6692L16.9356 15.9423C17.0134 15.9204 17.0952 15.9172 17.1744 15.9329C17.2537 15.9486 17.3282 15.9829 17.3919 16.0329C17.4557 16.0829 17.5069 16.1473 17.5416 16.2209C17.5762 16.2945 17.5933 16.3753 17.5914 16.4567C17.5914 16.749 17.3606 16.9817 17.09 16.9817C17.0228 16.9808 16.9564 16.9665 16.8948 16.9396C16.8331 16.9126 16.7773 16.8736 16.7307 16.8248C16.6841 16.776 16.6475 16.7183 16.6231 16.6551C16.5987 16.5919 16.587 16.5245 16.5886 16.4567C16.5875 16.3797 16.6002 16.3121 16.6268 16.2538L16.4064 15.9125H16.3475C16.2803 15.9116 16.2139 15.8973 16.1522 15.8703C16.0906 15.8434 16.0348 15.8044 15.9882 15.7555C15.9415 15.7067 15.905 15.649 15.8806 15.5859C15.8562 15.5227 15.8445 15.4553 15.8461 15.3875C15.8461 15.097 16.0681 14.8538 16.3492 14.8538H16.396L16.743 14.222C16.6963 14.1389 16.6729 14.0445 16.6754 13.949C16.6754 13.6568 16.8974 13.4135 17.1767 13.4135C17.4457 13.4135 17.6781 13.6585 17.6781 13.949ZM15.4609 14.6298C15.5281 14.6288 15.5945 14.6145 15.6562 14.5876C15.7178 14.5606 15.7736 14.5216 15.8202 14.4728C15.8668 14.424 15.9034 14.3663 15.9278 14.3031C15.9522 14.2399 15.9639 14.1725 15.9623 14.1047C15.9623 13.8125 15.7402 13.5693 15.4609 13.5693C15.1816 13.5693 14.9595 13.8037 14.9595 14.1047C14.9595 14.173 14.9786 14.2412 14.9977 14.299L14.5935 14.873C14.5494 14.8606 14.5039 14.8541 14.4581 14.8538C14.1892 14.8538 13.9672 15.0865 13.9672 15.3875C13.9672 15.6797 14.1892 15.923 14.4581 15.923C14.7479 15.923 14.9613 15.678 14.9613 15.3875C14.9644 15.3108 14.9507 15.2343 14.9214 15.1635L15.3065 14.6105C15.3563 14.6276 15.4083 14.6371 15.4609 14.6385V14.6298ZM18.5838 15.174C18.5838 15.4662 18.3617 15.7095 18.0824 15.7095C17.8135 15.7095 17.581 15.4645 17.581 15.174C17.581 14.8817 17.8135 14.6385 18.0841 14.6385C18.3617 14.6385 18.5838 14.873 18.5838 15.174ZM18.4866 21.0068C18.4899 20.8773 18.4456 20.7513 18.3624 20.6528C18.2791 20.5542 18.1627 20.4902 18.0355 20.473C17.756 20.277 17.5544 19.9874 17.4665 19.6557C17.493 19.5813 17.5025 19.5017 17.4942 19.423C17.5282 19.2381 17.5997 19.0624 17.7042 18.9067C17.8087 18.751 17.9439 18.6187 18.1015 18.5183C18.3339 18.4693 18.4883 18.2557 18.4883 17.9932C18.4883 17.7027 18.2749 17.4682 18.006 17.4682C17.938 17.468 17.8706 17.4815 17.8079 17.5079C17.7451 17.5343 17.6882 17.5731 17.6405 17.622C17.5928 17.6709 17.5553 17.729 17.5302 17.7927C17.5051 17.8565 17.4928 17.9247 17.4942 17.9932L17.5046 18.0912C17.4075 18.576 17.1767 18.8193 16.9842 18.9365C16.7135 18.9365 16.5019 19.1798 16.5019 19.472C16.5019 19.724 16.6667 19.9375 16.887 19.997C17.1299 20.1423 17.4665 20.4345 17.5341 20.8125C17.5087 20.8741 17.4952 20.94 17.4942 21.0068C17.4942 21.299 17.7163 21.5318 17.9974 21.5318C18.0644 21.5306 18.1306 21.5161 18.1921 21.4891C18.2535 21.462 18.3091 21.423 18.3555 21.3742C18.402 21.3254 18.4384 21.2678 18.4627 21.2047C18.487 21.1417 18.4986 21.0744 18.497 21.0068H18.4866ZM14.0626 19.472C14.0626 19.7625 13.8422 20.0057 13.5629 20.0057C13.2923 20.0057 13.0702 19.7625 13.0702 19.472C13.0702 19.1798 13.2923 18.9365 13.5629 18.9365C13.8405 18.9365 14.0626 19.1798 14.0626 19.472ZM14.7791 21.0645C14.8321 20.9772 14.8586 20.8763 14.8554 20.774C14.8554 20.4817 14.6247 20.249 14.354 20.249C14.2862 20.2504 14.2194 20.2653 14.1573 20.2929C14.0953 20.3206 14.0393 20.3604 13.9927 20.4101C13.946 20.4597 13.9096 20.5183 13.8856 20.5822C13.8615 20.6462 13.8503 20.7144 13.8527 20.7827C13.8527 21.075 14.0747 21.3077 14.3558 21.3077H14.413L14.9127 22.1442C14.8728 22.2226 14.8531 22.3099 14.8554 22.398C14.8554 22.6885 15.0775 22.9318 15.3464 22.9318C15.6275 22.9318 15.8495 22.699 15.8495 22.398C15.8495 22.1058 15.6275 21.873 15.3464 21.873C15.3176 21.8706 15.2885 21.8706 15.2597 21.873L14.7791 21.0645ZM14.1615 22.1932C14.1615 22.4855 13.9394 22.7288 13.6601 22.7288C13.5236 22.7237 13.3945 22.6648 13.3007 22.5646C13.2069 22.4644 13.1559 22.331 13.1587 22.1932C13.1587 21.9027 13.3912 21.6595 13.6618 21.6595C13.9394 21.6595 14.1615 21.9027 14.1615 22.1932ZM13.0719 21.3182C13.3426 21.3182 13.5647 21.075 13.5647 20.7827C13.5647 20.4905 13.3426 20.249 13.0719 20.249C13.0041 20.2504 12.9373 20.2653 12.8752 20.2929C12.8132 20.3206 12.7572 20.3604 12.7106 20.4101C12.6639 20.4597 12.6275 20.5183 12.6035 20.5822C12.5794 20.6462 12.5682 20.7144 12.5706 20.7827C12.5706 21.075 12.7926 21.3077 13.0737 21.3077L13.0719 21.3182ZM14.1615 16.6913C14.1572 16.7853 14.1342 16.8776 14.0938 16.9625L14.4512 17.47H14.5657L14.9127 16.9538C14.8713 16.8727 14.8516 16.7823 14.8554 16.6913C14.8554 16.399 15.0775 16.1557 15.3464 16.1557C15.6275 16.1557 15.8495 16.399 15.8495 16.6913C15.8495 16.9835 15.6275 17.225 15.3464 17.225H15.2597L14.904 17.75C14.9439 17.8284 14.9636 17.9157 14.9613 18.0038C14.9613 18.2943 14.7392 18.5375 14.4599 18.5375C14.191 18.5375 13.9689 18.2943 13.9689 18.0038C13.9689 17.876 14.0071 17.7587 14.0661 17.6712L13.7364 17.2162L13.6792 17.225L13.4189 17.7885C13.4671 17.8388 13.5048 17.8983 13.5298 17.9635C13.5548 18.0288 13.5667 18.0984 13.5647 18.1683C13.5647 18.4605 13.3426 18.7038 13.0719 18.7038C12.7944 18.7038 12.5706 18.4588 12.5706 18.1683C12.5706 17.8865 12.7649 17.6625 13.0251 17.6345L13.294 17.05C13.2084 16.9502 13.1605 16.8232 13.1587 16.6913C13.1587 16.399 13.3912 16.1557 13.6618 16.1557C13.9394 16.1557 14.1615 16.399 14.1615 16.6913ZM16.089 18.5375C16.3683 18.5375 16.5903 18.2943 16.5903 17.995C16.5903 17.701 16.3683 17.47 16.089 17.47C15.9538 17.4737 15.8255 17.5308 15.7317 17.629C15.6379 17.7272 15.5862 17.8586 15.5876 17.995C15.5876 18.2855 15.82 18.5287 16.0907 18.5287L16.089 18.5375ZM16.9946 23.0105C17.2843 23.0105 17.4977 22.776 17.4977 22.475C17.5001 22.3372 17.4486 22.2041 17.3545 22.1042C17.2604 22.0043 17.1311 21.9458 16.9946 21.9413C16.7257 21.9413 16.5036 22.1845 16.5036 22.475C16.5036 22.7672 16.7257 23.0105 16.9946 23.0105ZM18.556 23.826C18.556 24.1183 18.3357 24.3615 18.0546 24.3615C17.999 24.3604 17.944 24.3504 17.8915 24.3317L17.6695 24.722C17.6891 24.7782 17.699 24.8374 17.699 24.897C17.699 25.1875 17.4769 25.4307 17.1976 25.4307C16.9287 25.4307 16.7066 25.198 16.7066 24.897V24.799L16.2624 24.2845C16.1919 24.3097 16.1167 24.3193 16.0421 24.3125L15.945 24.547C16.0238 24.6459 16.0645 24.7702 16.0595 24.897C16.0595 25.1875 15.8391 25.4307 15.5685 25.4307C15.5007 25.4294 15.4338 25.4145 15.3718 25.3868C15.3097 25.3592 15.2537 25.3193 15.2071 25.2697C15.1604 25.22 15.124 25.1615 15.1 25.0975C15.076 25.0335 15.0648 24.9654 15.0671 24.897C15.0671 24.6047 15.2805 24.372 15.5494 24.3615L15.6743 24.0797C15.6174 23.9931 15.5872 23.8914 15.5876 23.7875C15.5876 23.497 15.82 23.2538 16.0907 23.2538C16.3683 23.2538 16.5903 23.4865 16.5903 23.7875L16.5609 23.9625L16.9668 24.4298C17.025 24.3971 17.0892 24.3768 17.1554 24.3701C17.2217 24.3635 17.2886 24.3707 17.352 24.3913L17.5827 24.001C17.5637 23.9447 17.5543 23.8855 17.555 23.826C17.555 23.5355 17.7857 23.2922 18.0546 23.2922C18.3357 23.2922 18.5577 23.5355 18.5577 23.8277M19.4946 19.6102C19.4946 19.9007 19.2725 20.144 19.0019 20.144C18.7226 20.144 18.5005 19.9008 18.5005 19.6085C18.5005 19.3163 18.7035 19.094 18.9637 19.0747C19.1372 18.9575 19.3489 18.7055 19.4738 18.2173C19.4226 18.0945 19.4164 17.9574 19.4564 17.8305C19.4043 17.4976 19.2319 17.1959 18.9724 16.9835C18.8414 16.9733 18.719 16.9136 18.6299 16.8162C18.5407 16.7188 18.4914 16.591 18.4918 16.4585C18.4918 16.168 18.7226 15.9247 19.0019 15.9247C19.2708 15.9247 19.4929 16.1575 19.4929 16.4585C19.4929 16.5448 19.4772 16.6265 19.446 16.7035C19.5414 16.945 19.734 17.3738 19.9179 17.47C20.2059 17.47 20.428 17.7028 20.428 17.995C20.4291 18.095 20.4028 18.1933 20.3519 18.2792C20.3011 18.365 20.2278 18.4351 20.14 18.4815L20.1677 18.4903C19.9875 18.609 19.8341 18.7649 19.7178 18.9477C19.6015 19.1305 19.5248 19.336 19.4929 19.5508L19.4946 19.6102ZM19.9942 21.5353C20.0616 21.5346 20.1281 21.5204 20.19 21.4936C20.2519 21.4667 20.3079 21.4277 20.3547 21.3789C20.4015 21.3301 20.4382 21.2723 20.4627 21.209C20.4872 21.1457 20.499 21.0782 20.4974 21.0102C20.4974 20.718 20.2736 20.4748 19.9942 20.4748C19.858 20.4798 19.7292 20.5385 19.6354 20.6383C19.5417 20.7381 19.4905 20.871 19.4929 21.0085C19.494 21.0902 19.5102 21.1648 19.5414 21.2325L19.1268 21.8748H19.0591C18.9919 21.8757 18.9256 21.89 18.8639 21.9169C18.8022 21.9439 18.7465 21.9829 18.6998 22.0317C18.6532 22.0805 18.6166 22.1382 18.5922 22.2014C18.5679 22.2646 18.5561 22.332 18.5577 22.3997C18.5577 22.6902 18.7798 22.9335 19.0609 22.9335C19.1968 22.928 19.3252 22.8691 19.4185 22.7694C19.5119 22.6696 19.5629 22.5369 19.5605 22.3997C19.5587 22.3009 19.5324 22.2041 19.4842 22.118L19.8693 21.523L19.9942 21.5353ZM20.428 23.8277C20.428 24.12 20.2059 24.3633 19.9266 24.3633C19.6473 24.3633 19.4252 24.1305 19.4252 23.8277C19.4252 23.5372 19.6473 23.294 19.9283 23.294C20.2059 23.294 20.428 23.5372 20.428 23.8295M20.8339 25.5515C21.1115 25.5515 21.3336 25.3188 21.3336 25.016C21.3336 24.7255 21.1133 24.4823 20.8339 24.4823C20.5633 24.4823 20.3412 24.7255 20.3412 25.016C20.3412 25.3083 20.5633 25.5515 20.8339 25.5515ZM21.4203 19.4755C21.4203 19.766 21.2 20.0093 20.9207 20.0093C20.65 20.0093 20.428 19.766 20.428 19.4755C20.428 19.1833 20.65 18.94 20.9294 18.94C21.2 18.94 21.4203 19.1833 21.4203 19.4755ZM21.8367 21.5545C21.9726 21.549 22.101 21.4901 22.1944 21.3904C22.2878 21.2906 22.3387 21.1579 22.3364 21.0208C22.3364 20.7285 22.1056 20.4852 21.835 20.4852C21.5574 20.4852 21.3336 20.7303 21.3336 21.0208C21.3336 21.0978 21.3527 21.1765 21.3735 21.2343L21.0161 21.817H20.997C20.9298 21.8179 20.8635 21.8322 20.8018 21.8592C20.7401 21.8861 20.6844 21.9251 20.6377 21.974C20.5911 22.0228 20.5545 22.0805 20.5301 22.1436C20.5057 22.2068 20.494 22.2742 20.4956 22.342C20.4956 22.6342 20.7177 22.8775 20.997 22.8775C21.1335 22.8725 21.2626 22.8135 21.3564 22.7133C21.4502 22.6131 21.5012 22.4798 21.4984 22.342C21.499 22.2264 21.4618 22.1138 21.3926 22.0217L21.7014 21.5353C21.7396 21.5545 21.7881 21.5545 21.835 21.5545M22.3346 23.791C22.3325 23.8958 22.2992 23.9976 22.2392 24.0833L22.4214 24.3755H22.47C22.7493 24.3755 22.9714 24.6083 22.9714 24.9005C22.9714 25.1928 22.7493 25.4342 22.4682 25.4342C22.1906 25.4342 21.9686 25.2015 21.9686 24.9005C21.9686 24.7938 22.0067 24.6852 22.0657 24.6082L21.8818 24.316H21.8332C21.766 24.3151 21.6997 24.3008 21.638 24.2738C21.5763 24.2469 21.5206 24.2079 21.474 24.159C21.4273 24.1102 21.3908 24.0525 21.3664 23.9894C21.342 23.9262 21.3302 23.8588 21.3319 23.791C21.3319 23.5005 21.5539 23.2573 21.835 23.2573C22.1039 23.2573 22.3346 23.49 22.3346 23.791ZM22.8169 22.8775C23.1067 22.8775 23.3183 22.6447 23.3183 22.342C23.3183 22.0515 23.0963 21.8083 22.8256 21.8083C22.548 21.8083 22.326 22.0515 22.326 22.3438C22.326 22.636 22.5463 22.8775 22.8256 22.8775H22.8169ZM23.9741 23.6948C23.9741 23.9853 23.7416 24.2285 23.471 24.2285C23.1934 24.2285 22.9714 23.9853 22.9714 23.6948C22.9714 23.4025 23.1934 23.1592 23.4727 23.1592C23.7416 23.1592 23.9637 23.392 23.9637 23.6948H23.9741ZM24.3211 20.0285C24.5987 20.0285 24.8225 19.7852 24.8225 19.4947C24.8253 19.3567 24.7741 19.2231 24.6799 19.1228C24.5857 19.0226 24.4562 18.9638 24.3194 18.9592C24.0418 18.9592 23.8197 19.192 23.8197 19.4947C23.8197 19.7852 24.0418 20.0285 24.3211 20.0285ZM23.936 21.1572C24.0241 21.0585 24.0719 20.9296 24.0695 20.7968C24.0714 20.7285 24.0599 20.6605 24.0357 20.5968C24.0115 20.533 23.9751 20.4746 23.9285 20.4251C23.8819 20.3755 23.8261 20.3357 23.7643 20.3079C23.7025 20.2801 23.6358 20.2648 23.5682 20.263C23.2992 20.263 23.0668 20.5063 23.0668 20.7968C23.0668 21.089 23.2802 21.3217 23.5491 21.3322L23.8683 21.8573C23.8374 21.9242 23.8209 21.9969 23.8197 22.0707C23.8197 22.3612 24.0418 22.6062 24.3211 22.6062C24.6004 22.6062 24.8225 22.3717 24.8225 22.0707C24.8229 21.9668 24.7927 21.8651 24.7358 21.7785L24.996 21.264C25.2354 21.264 25.4193 21.0697 25.4193 20.816C25.4193 20.564 25.2267 20.3697 25.0047 20.3697C24.8899 20.3725 24.781 20.421 24.7016 20.5047C24.6223 20.5883 24.579 20.7003 24.5813 20.816C24.5813 20.8947 24.5987 20.9735 24.6282 21.0312L24.368 21.5457C24.3072 21.5378 24.2455 21.5408 24.1858 21.5545L23.9429 21.1572H23.936ZM15.5008 19.7747C15.5611 19.6898 15.595 19.5887 15.598 19.4843C15.598 19.1833 15.3672 18.9417 15.0966 18.9417C14.8069 18.9417 14.5952 19.1833 14.5952 19.4755C14.5952 19.7678 14.8173 20.0093 15.0966 20.0093H15.1348L15.6379 20.7862C15.6049 20.8563 15.5877 20.9328 15.5876 21.0102C15.5876 21.3025 15.82 21.5353 16.0907 21.5353C16.1577 21.5341 16.2239 21.5196 16.2854 21.4926C16.3469 21.4655 16.4024 21.4265 16.4489 21.3777C16.4953 21.3289 16.5317 21.2713 16.556 21.2082C16.5803 21.1452 16.592 21.0779 16.5903 21.0102C16.5903 20.7197 16.3683 20.4765 16.089 20.4765C16.0471 20.4743 16.0052 20.4773 15.964 20.4852L15.5008 19.7747ZM19.6906 25.45L19.4495 25.2173C19.4743 25.1555 19.4873 25.0896 19.4876 25.023C19.4876 24.722 19.2673 24.4788 18.9967 24.4788C18.7173 24.4788 18.4953 24.722 18.4953 25.0125C18.4953 25.3047 18.7173 25.548 18.9967 25.548C19.0452 25.548 19.0921 25.548 19.1407 25.5287L19.3731 25.751C19.345 25.8191 19.3314 25.8925 19.3332 25.9662C19.3332 26.2567 19.5553 26.5 19.8364 26.5C20.1053 26.5 20.336 26.2567 20.336 25.9662C20.336 25.674 20.1053 25.4307 19.8346 25.4307C19.786 25.4303 19.7375 25.4368 19.6906 25.45ZM18.6983 25.9662C18.7006 26.104 18.6492 26.2372 18.5551 26.337C18.4609 26.4369 18.3317 26.4954 18.1951 26.5C17.9176 26.5 17.6955 26.2567 17.6955 25.9662C17.6955 25.674 17.9176 25.4307 18.1969 25.4307C18.4762 25.4307 18.6983 25.6757 18.6983 25.9662ZM15.0636 23.5425C15.0636 23.8348 14.8433 24.078 14.5622 24.078C14.2847 24.078 14.0626 23.8348 14.0626 23.5425C14.0626 23.2503 14.2829 23.0088 14.5622 23.0088C14.8433 23.0088 15.0654 23.252 15.0654 23.5425M22.1785 18.079C22.1804 18.142 22.171 18.2048 22.1507 18.2645L22.5845 18.9452H22.699C22.9783 18.9452 23.2021 19.178 23.2021 19.4702C23.2021 19.7625 22.9783 20.004 22.699 20.004C22.4301 20.004 22.1976 19.7607 22.1976 19.4702C22.1976 19.3827 22.2172 19.3046 22.2566 19.2357L21.8038 18.5358H21.7552C21.5244 18.5358 21.3301 18.3433 21.3301 18.0808C21.3301 17.8358 21.5227 17.6327 21.7552 17.6327C21.8699 17.6355 21.9789 17.684 22.0582 17.7677C22.1376 17.8513 22.1808 17.9633 22.1785 18.079ZM24.2031 18.1665C24.2031 18.4587 23.9724 18.702 23.7017 18.702C23.4224 18.702 23.2004 18.457 23.2004 18.1665C23.2004 17.8742 23.4224 17.6327 23.7035 17.6327C23.9724 17.6327 24.2031 17.8655 24.2031 18.1665ZM23.2004 16.6107C23.2004 16.903 22.9783 17.155 22.699 17.155C22.4301 17.155 22.1976 16.9117 22.1976 16.6212C22.1976 16.329 22.4301 16.0857 22.7007 16.0857C22.9783 16.0857 23.2004 16.3202 23.2004 16.6212V16.6107ZM21.311 14.005C21.311 14.2972 21.0907 14.5405 20.8097 14.5405C20.5407 14.5405 20.3187 14.2972 20.3187 14.005C20.3187 13.7127 20.5407 13.4713 20.8097 13.4713C21.0907 13.4713 21.3128 13.7145 21.3128 14.005M22.5272 14.6875C22.8065 14.6875 23.0303 14.4425 23.0303 14.152C23.0303 13.8598 22.8065 13.6165 22.5272 13.6165C22.2583 13.6165 22.0258 13.8598 22.0258 14.152C22.0258 14.4443 22.2583 14.6857 22.5289 14.6857M20.4956 15.1705C20.4956 15.4628 20.2736 15.706 19.9942 15.706C19.7253 15.706 19.4929 15.461 19.4929 15.1705C19.4929 14.8783 19.7253 14.635 19.996 14.635C20.2736 14.635 20.4956 14.8695 20.4956 15.1705ZM23.3201 15.9195C23.6098 15.9195 23.8215 15.6745 23.8215 15.384C23.8215 15.0935 23.5994 14.8503 23.3183 14.8503C23.0494 14.8503 22.8274 15.083 22.8274 15.384C22.8274 15.6762 23.0494 15.9195 23.3201 15.9195ZM21.894 15.8023C21.9867 15.7578 22.0648 15.6876 22.1192 15.5999C22.1736 15.5121 22.202 15.4105 22.201 15.307C22.201 15.0148 21.9807 14.7715 21.7101 14.7715C21.4307 14.7715 21.2087 15.006 21.2087 15.307C21.2087 15.3648 21.2087 15.4225 21.2278 15.4715C21.1617 15.6958 21.0184 15.8888 20.8235 16.0157C20.7068 16.0523 20.605 16.1262 20.5336 16.2263C20.4622 16.3264 20.4251 16.4472 20.428 16.5705C20.428 16.882 20.6709 17.1445 20.9589 17.1445C21.2468 17.1445 21.4967 16.882 21.4967 16.5705C21.4962 16.5145 21.4868 16.459 21.4689 16.406C21.5279 16.161 21.7396 15.9283 21.894 15.8023ZM24.8225 16.8435C24.8232 16.988 24.7685 17.1272 24.6698 17.232L24.8225 17.6205C24.9598 17.6282 25.0888 17.6891 25.1826 17.7905C25.2764 17.892 25.3276 18.0261 25.3256 18.1648C25.3256 18.457 25.0931 18.7003 24.8225 18.7003C24.5449 18.7003 24.3228 18.4553 24.3228 18.1648C24.3228 18.0283 24.3697 17.9127 24.4373 17.8147L24.2639 17.3685C24.1398 17.3495 24.0266 17.2859 23.9453 17.1894C23.864 17.093 23.82 16.9701 23.8215 16.8435C23.8215 16.5513 24.0435 16.308 24.3228 16.308C24.6022 16.308 24.8242 16.5407 24.8242 16.8417M19.4217 7.25C19.7616 7.2484 20.0979 7.17919 20.4113 7.04634C20.7246 6.91348 21.0089 6.7196 21.2479 6.47577C21.4869 6.23195 21.6759 5.94298 21.804 5.6254C21.9321 5.30781 21.9969 4.96786 21.9946 4.625C21.9946 3.16725 20.8374 2 19.4217 2C19.0818 2.0016 18.7456 2.07081 18.4322 2.20366C18.1188 2.33652 17.8345 2.5304 17.5955 2.77423C17.3566 3.01805 17.1676 3.30702 17.0395 3.6246C16.9113 3.94219 16.8466 4.28214 16.8488 4.625C16.8488 6.08275 18.0043 7.25 19.4217 7.25ZM32.2687 15.0568C32.95 15.099 33.6199 14.8665 34.1312 14.4105C34.6425 13.9545 34.9533 13.3123 34.9951 12.6251C35.037 11.938 34.8066 11.2622 34.3545 10.7465C33.9024 10.2307 33.2657 9.91724 32.5845 9.875C31.9033 9.83276 31.2333 10.0652 30.722 10.5212C30.2107 10.9773 29.9 11.6195 29.8581 12.3066C29.8162 12.9938 30.0467 13.6695 30.4987 14.1853C30.9508 14.701 31.5875 15.0145 32.2687 15.0568ZM34.8433 26.3057C34.8433 26.625 34.781 26.941 34.6599 27.236C34.5388 27.5309 34.3613 27.7988 34.1375 28.0246C33.9138 28.2503 33.6481 28.4293 33.3557 28.5515C33.0634 28.6736 32.75 28.7365 32.4336 28.7365C32.1171 28.7365 31.8037 28.6736 31.5114 28.5515C31.219 28.4293 30.9533 28.2503 30.7296 28.0246C30.5058 27.7988 30.3283 27.5309 30.2072 27.236C30.0861 26.941 30.0238 26.625 30.0238 26.3057C30.0238 25.6611 30.2776 25.0428 30.7296 24.587C31.1815 24.1311 31.7944 23.875 32.4336 23.875C33.0727 23.875 33.6856 24.1311 34.1375 24.587C34.5895 25.0428 34.8433 25.6611 34.8433 26.3057ZM6.57297 15.125C7.99039 15.125 9.13717 13.9578 9.13717 12.5C9.13717 11.0422 7.97998 9.875 6.57471 9.875C6.23465 9.87637 5.8982 9.94541 5.58464 10.0782C5.27108 10.2109 4.98657 10.4048 4.7474 10.6486C4.50823 10.8925 4.31912 11.1815 4.19088 11.4992C4.06265 11.8169 3.99781 12.157 4.0001 12.5C4.0001 13.9578 5.15728 15.125 6.57297 15.125ZM21.9963 34.375C21.9963 35.8328 20.8374 37 19.4217 37C19.0816 36.9991 18.745 36.9304 18.4314 36.7977C18.1177 36.6651 17.8331 36.4713 17.594 36.2273C17.3549 35.9833 17.1659 35.6941 17.0381 35.3762C16.9102 35.0583 16.8459 34.7181 16.8488 34.375C16.8488 32.9172 18.0043 31.75 19.4217 31.75C19.7616 31.7516 20.0979 31.8208 20.4113 31.9537C20.7246 32.0865 21.0089 32.2804 21.2479 32.5242C21.4869 32.7681 21.6759 33.057 21.804 33.3746C21.9321 33.6922 21.9969 34.0321 21.9946 34.375M6.57124 29.125C7.98866 29.125 9.13544 27.9578 9.13544 26.5C9.13544 25.0422 7.97825 23.875 6.56256 23.875C6.22333 23.8773 5.88788 23.947 5.57541 24.0803C5.26294 24.2135 4.97959 24.4076 4.74157 24.6514C4.50355 24.8952 4.31555 25.184 4.18832 25.5012C4.06109 25.8184 3.99713 26.1578 4.0001 26.5C4.0001 27.9578 5.15728 29.125 6.5643 29.125H6.57124ZM18.4554 11.723V7.83275H20.3829V11.723H18.4554ZM25.7142 17.148L30.022 14.698L29.0592 13.0057L24.76 15.4558L25.7229 17.148H25.7142ZM13.3773 23.273L9.58825 25.4885L8.81795 24.0307L12.5966 21.8135L13.3669 23.273H13.3773ZM18.4554 26.948V30.8365H20.3829V26.948H18.4554ZM29.0297 26.003L24.5952 23.9625L25.3673 22.3105L29.8 24.3615L29.0297 26.003ZM21.5869 6.753C21.9339 6.375 22.1854 5.91825 22.3208 5.4125L30.4748 10.0605C30.0678 10.3747 29.7436 10.7852 29.531 11.2558L21.5904 6.7425L21.5869 6.753ZM32.267 15.573C32.5671 15.573 32.8569 15.524 33.1345 15.4452V23.574C32.572 23.4038 31.9724 23.4038 31.41 23.574V15.4452C31.6893 15.524 31.9686 15.573 32.2774 15.573H32.267ZM29.5987 27.8317L21.5973 32.2838C21.9443 32.6635 22.2045 33.1203 22.3312 33.626L30.6188 28.9885C30.1838 28.701 29.8318 28.3007 29.5987 27.8317ZM16.5088 33.6383C16.6337 33.122 16.894 32.6652 17.2323 32.2855L9.26902 27.844C9.04423 28.315 8.70677 28.7221 8.28706 29.0287L16.5088 33.6383ZM6.57471 23.4375C6.2763 23.4375 5.98657 23.4865 5.70725 23.5635V15.4365C6.26936 15.608 6.86964 15.608 7.43349 15.4365V23.5635C7.15217 23.4782 6.85979 23.4357 6.56603 23.4375H6.57471ZM9.3124 11.2558L17.2548 6.7355C16.9033 6.36035 16.6514 5.90164 16.5227 5.402L8.36687 10.05C8.7711 10.3615 9.10074 10.7693 9.3124 11.2558Z" fill="white"/>
</svg>
