<svg width="40" height="40" viewBox="0 0 40 40" fill="none" xmlns="http://www.w3.org/2000/svg">
<path d="M20 30.8333C20.0027 31.7071 19.7299 32.5595 19.2203 33.2693C18.7107 33.9791 17.9903 34.5102 17.1616 34.787C16.3328 35.0639 15.4379 35.0725 14.604 34.8115C13.7701 34.5505 13.0397 34.0333 12.5167 33.3333H12.5C11.8581 33.341 11.2232 33.1982 10.6464 32.9165C10.0695 32.6348 9.56652 32.222 9.17776 31.7111C8.789 31.2003 8.52522 30.6055 8.40753 29.9743C8.28984 29.3432 8.32151 28.6933 8.5 28.0767C7.6153 27.8034 6.82461 27.2882 6.21719 26.5893C5.60978 25.8904 5.20983 25.0357 5.0625 24.1215C4.91516 23.2074 5.02631 22.2702 5.3834 21.4159C5.74049 20.5616 6.32929 19.8241 7.08334 19.2867C6.63653 18.3698 6.546 17.3197 6.82929 16.3399C7.11258 15.3601 7.74952 14.5203 8.61667 13.9833C8.39335 13.4141 8.29929 12.8023 8.34127 12.1923C8.38324 11.5822 8.56022 10.9891 8.85941 10.4558C9.15859 9.9225 9.57251 9.46232 10.0713 9.10852C10.57 8.75472 11.1411 8.51613 11.7433 8.41C11.8563 7.80043 12.1039 7.22377 12.4681 6.72204C12.8322 6.22031 13.3038 5.80616 13.8483 5.50979C14.3928 5.21341 14.9966 5.04228 15.6157 5.00888C16.2347 4.97547 16.8534 5.08062 17.4267 5.31667C18.1883 5.63188 18.8394 6.16593 19.2974 6.85125C19.7555 7.53657 20 8.34236 20 9.16667M20 30.8333V9.16667M20 30.8333C19.9973 31.7071 20.2701 32.5595 20.7797 33.2693C21.2893 33.9791 22.0097 34.5102 22.8384 34.787C23.6672 35.0639 24.5621 35.0725 25.396 34.8115C26.2299 34.5505 26.9603 34.0333 27.4833 33.3333H27.5C28.1424 33.3417 28.7778 33.1996 29.3553 32.9182C29.9328 32.6369 30.4364 32.2242 30.8258 31.7132C31.2151 31.2022 31.4793 30.6071 31.5973 29.9756C31.7152 29.3441 31.6836 28.6938 31.505 28.0767C32.3894 27.8028 33.1796 27.2872 33.7864 26.588C34.3933 25.8888 34.7927 25.034 34.9395 24.1199C35.0863 23.2058 34.9747 22.2689 34.6172 21.4148C34.2598 20.5608 33.6708 19.8237 32.9167 19.2867C33.3633 18.3696 33.4536 17.3194 33.17 16.3395C32.8864 15.3597 32.2491 14.52 31.3817 13.9833C31.605 13.4142 31.6991 12.8026 31.6572 12.1926C31.6153 11.5827 31.4385 10.9896 31.1395 10.4564C30.8405 9.92307 30.4268 9.46287 29.9282 9.10898C29.4297 8.75509 28.8587 8.51634 28.2567 8.41C28.0801 7.45363 27.5745 6.58917 26.8275 5.96638C26.0805 5.34359 25.1392 5.00172 24.1667 5C23.0616 5 22.0018 5.43899 21.2204 6.22039C20.439 7.00179 20 8.0616 20 9.16667M6.66667 17.5C6.66664 16.8112 6.83738 16.1332 7.16359 15.5265C7.4898 14.9199 7.96131 14.4036 8.53593 14.0238C9.11056 13.644 9.77037 13.4126 10.4563 13.3503C11.1423 13.288 11.833 13.3967 12.4667 13.6667M12 27.9183C10.8684 28.4138 9.5934 28.4728 8.42085 28.084C7.2483 27.6952 6.26119 26.886 5.64983 25.8126C5.03847 24.7391 4.84614 23.4774 5.10991 22.2705C5.37368 21.0637 6.07488 19.9972 7.07834 19.2767M33.3333 17.5C33.3335 16.811 33.1628 16.1327 32.8365 15.5259C32.5102 14.919 32.0385 14.4026 31.4636 14.0228C30.8888 13.6429 30.2287 13.4116 29.5425 13.3495C28.8563 13.2873 28.1654 13.3963 27.5317 13.6667M27.9983 27.9183C29.1301 28.4151 30.4058 28.4751 31.5792 28.0867C32.7526 27.6983 33.7406 26.889 34.3524 25.8151C34.9643 24.7411 35.1567 23.4786 34.8924 22.2712C34.6282 21.0637 33.9261 19.9969 32.9217 19.2767" stroke="white" stroke-width="2" stroke-linecap="round" stroke-linejoin="round"/>
</svg>
