<svg width="37" height="37" viewBox="0 0 37 37" fill="none" xmlns="http://www.w3.org/2000/svg">
<g clip-path="url(#clip0_2_2)">
<path d="M29.2917 10.7917C29.2917 10.7917 21.5833 21.5833 10.0208 21.5833M10.0208 21.5833C6.93749 21.5833 1.54166 23.125 1.54166 29.2917V35.4583H18.5V29.2917C18.5 25.4375 23.125 27.75 29.2917 16.9583L26.9792 14.6458M10.0208 21.5833C11.4519 21.5833 12.8243 21.0149 13.8363 20.0029C14.8482 18.991 15.4167 17.6186 15.4167 16.1875C15.4167 14.7564 14.8482 13.384 13.8363 12.3721C12.8243 11.3602 11.4519 10.7917 10.0208 10.7917C8.58976 10.7917 7.21731 11.3602 6.20539 12.3721C5.19348 13.384 4.62499 14.7564 4.62499 16.1875C4.62499 17.6186 5.19348 18.991 6.20539 20.0029C7.21731 21.0149 8.58976 21.5833 10.0208 21.5833ZM4.62499 7.70834V3.08334H35.4583V24.6667H30.8333M16.9583 1.54167H23.125V4.62501H16.9583V1.54167Z" stroke="violet" stroke-width="2"/>
</g>
<defs>
<clipPath id="clip0_2_2">
<rect width="37" height="37" fill="white"/>
</clipPath>
</defs>
</svg>
